<svg width="32" height="32" viewBox="0 0 32 32" fill="none" xmlns="http://www.w3.org/2000/svg">
<g id="admin-alt 1" clip-path="url(#clip0_199_24036)">
<path id="Vector" d="M10.6667 16C15.0787 16 18.6667 12.412 18.6667 8C18.6667 3.588 15.0787 0 10.6667 0C6.25466 0 2.66666 3.588 2.66666 8C2.66666 12.412 6.25466 16 10.6667 16ZM10.6667 2.66667C13.608 2.66667 16 5.05867 16 8C16 10.9413 13.608 13.3333 10.6667 13.3333C7.72532 13.3333 5.33332 10.9413 5.33332 8C5.33332 5.05867 7.72532 2.66667 10.6667 2.66667ZM11.9893 19.9173C12.08 20.648 11.5627 21.3133 10.8307 21.4053C6.17599 21.9867 2.66532 25.9667 2.66532 30.6667C2.66532 31.4027 2.06799 32 1.33199 32C0.595991 32 -0.00134277 31.4027 -0.00134277 30.6667C-0.00134277 24.6253 4.51332 19.5067 10.5 18.76C11.2227 18.668 11.896 19.1867 11.988 19.9187L11.9893 19.9173ZM30.2613 25.5107L28.9627 24.7613C29.184 24.0987 29.3333 23.4027 29.3333 22.6653C29.3333 21.928 29.1853 21.232 28.9627 20.5693L30.2613 19.82C30.8987 19.452 31.1173 18.636 30.7493 17.9987C30.38 17.36 29.5653 17.1413 28.928 17.5107L27.6307 18.26C26.6907 17.2013 25.4387 16.4267 24 16.1347V14.6667C24 13.9307 23.4027 13.3333 22.6667 13.3333C21.9307 13.3333 21.3333 13.9307 21.3333 14.6667V16.1347C19.8947 16.428 18.6427 17.2027 17.7027 18.26L16.4053 17.5107C15.764 17.1413 14.952 17.36 14.584 17.9987C14.216 18.6373 14.4347 19.452 15.072 19.82L16.3707 20.5693C16.1493 21.232 16 21.928 16 22.6653C16 23.4027 16.148 24.0987 16.3707 24.7613L15.072 25.5107C14.4347 25.8787 14.216 26.6947 14.584 27.332C14.832 27.76 15.2787 27.9987 15.74 27.9987C15.9653 27.9987 16.1947 27.9413 16.4053 27.82L17.7027 27.0707C18.6427 28.1293 19.8947 28.904 21.3333 29.196V30.664C21.3333 31.4 21.9307 31.9973 22.6667 31.9973C23.4027 31.9973 24 31.4 24 30.664V29.196C25.4387 28.9027 26.6907 28.128 27.6307 27.0707L28.928 27.82C29.1387 27.9413 29.368 27.9987 29.5933 27.9987C30.0547 27.9987 30.5027 27.76 30.7493 27.332C31.1173 26.6933 30.8987 25.8787 30.2613 25.5107ZM22.6667 26.6653C20.4613 26.6653 18.6667 24.8707 18.6667 22.6653C18.6667 20.46 20.4613 18.6653 22.6667 18.6653C24.872 18.6653 26.6667 20.46 26.6667 22.6653C26.6667 24.8707 24.872 26.6653 22.6667 26.6653Z" fill="#007BFC"/>
</g>
<defs>
<clipPath id="clip0_199_24036">
<rect width="32" height="32" fill="white"/>
</clipPath>
</defs>
</svg>
