<svg width="16" height="17" viewBox="0 0 16 17" fill="none" xmlns="http://www.w3.org/2000/svg">
<g id="angle-small-right (1) 1">
<path id="Vector" d="M9.41337 10.7667L12.4734 7.70666C12.5975 7.58175 12.6672 7.41278 12.6672 7.23666C12.6672 7.06053 12.5975 6.89157 12.4734 6.76666C12.4114 6.70417 12.3377 6.65458 12.2564 6.62073C12.1752 6.58688 12.088 6.56946 12 6.56946C11.912 6.56946 11.8249 6.58688 11.7437 6.62073C11.6624 6.65458 11.5887 6.70417 11.5267 6.76666L8.47337 9.83332C8.4114 9.89581 8.33766 9.94541 8.25643 9.97925C8.17519 10.0131 8.08805 10.0305 8.00004 10.0305C7.91203 10.0305 7.8249 10.0131 7.74366 9.97925C7.66242 9.94541 7.58868 9.89581 7.52671 9.83332L4.47337 6.76666C4.34872 6.64112 4.17931 6.57024 4.0024 6.56962C3.82549 6.56899 3.65558 6.63867 3.53004 6.76332C3.40451 6.88798 3.33363 7.05739 3.333 7.2343C3.33238 7.41121 3.40206 7.58112 3.52671 7.70666L6.58671 10.7667C6.96171 11.1412 7.47004 11.3516 8.00004 11.3516C8.53004 11.3516 9.03837 11.1412 9.41337 10.7667Z" fill="white"/>
</g>
</svg>
