<svg width="24" height="24" viewBox="0 0 24 24" fill="none" xmlns="http://www.w3.org/2000/svg">
<g id="broadcast-tower 1" clip-path="url(#clip0_199_2114)">
<path id="Vector" d="M12 5.49988C10.07 5.49988 8.49999 7.06988 8.49999 8.99988C8.49999 10.5819 9.55599 11.9229 11 12.3539V22.9999C11 23.5519 11.448 23.9999 12 23.9999C12.552 23.9999 13 23.5519 13 22.9999V12.3539C14.444 11.9229 15.5 10.5819 15.5 8.99988C15.5 7.06988 13.93 5.49988 12 5.49988ZM12 10.4999C11.173 10.4999 10.5 9.82688 10.5 8.99988C10.5 8.17288 11.173 7.49988 12 7.49988C12.827 7.49988 13.5 8.17288 13.5 8.99988C13.5 9.82688 12.827 10.4999 12 10.4999ZM7.75699 4.83288C6.62399 5.96588 5.99999 7.47288 5.99999 9.07588C5.99999 10.6789 6.62399 12.1849 7.75699 13.3189C8.14799 13.7089 8.14799 14.3419 7.75699 14.7329C7.56199 14.9279 7.30599 15.0259 7.04999 15.0259C6.79399 15.0259 6.53799 14.9279 6.34299 14.7329C4.83199 13.2219 3.99999 11.2129 3.99999 9.07588C3.99999 6.93888 4.83199 4.92988 6.34299 3.41888C6.73399 3.02788 7.36599 3.02788 7.75699 3.41888C8.14799 3.80988 8.14799 4.44188 7.75699 4.83288ZM20 9.07588C20 11.2129 19.168 13.2219 17.657 14.7329C17.462 14.9279 17.206 15.0259 16.95 15.0259C16.694 15.0259 16.438 14.9279 16.243 14.7329C15.852 14.3419 15.852 13.7089 16.243 13.3189C17.376 12.1859 18 10.6789 18 9.07588C18 7.47288 17.376 5.96688 16.243 4.83288C15.852 4.44188 15.852 3.80988 16.243 3.41888C16.634 3.02788 17.266 3.02788 17.657 3.41888C19.168 4.92988 20 6.93888 20 9.07588ZM4.92899 16.1469C5.31999 16.5379 5.31999 17.1699 4.92899 17.5609C4.73399 17.7559 4.47799 17.8539 4.22199 17.8539C3.96599 17.8539 3.70999 17.7559 3.51499 17.5609C-1.16401 12.8819 -1.16401 5.26888 3.51499 0.589881C3.90599 0.198881 4.53799 0.198881 4.92899 0.589881C5.31999 0.980881 5.31999 1.61288 4.92899 2.00388C1.03099 5.90288 1.03099 12.2479 4.92899 16.1469ZM20.486 17.5609C20.291 17.7559 20.035 17.8539 19.779 17.8539C19.523 17.8539 19.267 17.7559 19.072 17.5609C18.681 17.1699 18.681 16.5379 19.072 16.1469C22.97 12.2479 22.97 5.90388 19.072 2.00488C18.681 1.61388 18.681 0.981881 19.072 0.590881C19.463 0.199881 20.095 0.199881 20.486 0.590881C25.165 5.26888 25.165 12.8829 20.486 17.5609Z" fill="#007BFC"/>
</g>
<defs>
<clipPath id="clip0_199_2114">
<rect width="24" height="24" fill="white"/>
</clipPath>
</defs>
</svg>
