<svg width="20" height="21" viewBox="0 0 20 21" fill="none" xmlns="http://www.w3.org/2000/svg">
<g id="browser 1" clip-path="url(#clip0_101_25103)">
<path id="Vector" d="M15.8333 1.33337H4.16667C3.062 1.3347 2.00296 1.77411 1.22185 2.55522C0.440735 3.33634 0.00132321 4.39538 0 5.50004L0 15.5C0.00132321 16.6047 0.440735 17.6637 1.22185 18.4449C2.00296 19.226 3.062 19.6654 4.16667 19.6667H15.8333C16.938 19.6654 17.997 19.226 18.7782 18.4449C19.5593 17.6637 19.9987 16.6047 20 15.5V5.50004C19.9987 4.39538 19.5593 3.33634 18.7782 2.55522C17.997 1.77411 16.938 1.3347 15.8333 1.33337ZM4.16667 3.00004H15.8333C16.4964 3.00004 17.1323 3.26343 17.6011 3.73227C18.0699 4.20111 18.3333 4.837 18.3333 5.50004V6.33337H1.66667V5.50004C1.66667 4.837 1.93006 4.20111 2.3989 3.73227C2.86774 3.26343 3.50363 3.00004 4.16667 3.00004ZM15.8333 18H4.16667C3.50363 18 2.86774 17.7367 2.3989 17.2678C1.93006 16.799 1.66667 16.1631 1.66667 15.5V8.00004H18.3333V15.5C18.3333 16.1631 18.0699 16.799 17.6011 17.2678C17.1323 17.7367 16.4964 18 15.8333 18ZM15.8333 11.3334C15.8333 11.5544 15.7455 11.7663 15.5893 11.9226C15.433 12.0789 15.221 12.1667 15 12.1667H5C4.77899 12.1667 4.56702 12.0789 4.41074 11.9226C4.25446 11.7663 4.16667 11.5544 4.16667 11.3334C4.16667 11.1124 4.25446 10.9004 4.41074 10.7441C4.56702 10.5878 4.77899 10.5 5 10.5H15C15.221 10.5 15.433 10.5878 15.5893 10.7441C15.7455 10.9004 15.8333 11.1124 15.8333 11.3334ZM12.5 14.6667C12.5 14.8877 12.4122 15.0997 12.2559 15.256C12.0996 15.4122 11.8877 15.5 11.6667 15.5H5C4.77899 15.5 4.56702 15.4122 4.41074 15.256C4.25446 15.0997 4.16667 14.8877 4.16667 14.6667C4.16667 14.4457 4.25446 14.2337 4.41074 14.0775C4.56702 13.9212 4.77899 13.8334 5 13.8334H11.6667C11.8877 13.8334 12.0996 13.9212 12.2559 14.0775C12.4122 14.2337 12.5 14.4457 12.5 14.6667ZM2.5 4.66671C2.5 4.50189 2.54887 4.34077 2.64044 4.20373C2.73201 4.06669 2.86216 3.95988 3.01443 3.89681C3.1667 3.83373 3.33426 3.81723 3.49591 3.84939C3.65756 3.88154 3.80605 3.96091 3.92259 4.07745C4.03913 4.194 4.1185 4.34248 4.15065 4.50413C4.18281 4.66578 4.16631 4.83334 4.10323 4.98561C4.04016 5.13788 3.93335 5.26803 3.79631 5.3596C3.65927 5.45117 3.49815 5.50004 3.33333 5.50004C3.11232 5.50004 2.90036 5.41224 2.74408 5.25596C2.5878 5.09968 2.5 4.88772 2.5 4.66671ZM5 4.66671C5 4.50189 5.04887 4.34077 5.14044 4.20373C5.23201 4.06669 5.36216 3.95988 5.51443 3.89681C5.6667 3.83373 5.83426 3.81723 5.99591 3.84939C6.15756 3.88154 6.30605 3.96091 6.42259 4.07745C6.53913 4.194 6.6185 4.34248 6.65065 4.50413C6.68281 4.66578 6.66631 4.83334 6.60323 4.98561C6.54016 5.13788 6.43335 5.26803 6.29631 5.3596C6.15927 5.45117 5.99815 5.50004 5.83333 5.50004C5.61232 5.50004 5.40036 5.41224 5.24408 5.25596C5.0878 5.09968 5 4.88772 5 4.66671ZM7.5 4.66671C7.5 4.50189 7.54887 4.34077 7.64044 4.20373C7.73201 4.06669 7.86216 3.95988 8.01443 3.89681C8.1667 3.83373 8.33426 3.81723 8.49591 3.84939C8.65756 3.88154 8.80604 3.96091 8.92259 4.07745C9.03913 4.194 9.1185 4.34248 9.15065 4.50413C9.18281 4.66578 9.16631 4.83334 9.10323 4.98561C9.04016 5.13788 8.93335 5.26803 8.79631 5.3596C8.65927 5.45117 8.49815 5.50004 8.33333 5.50004C8.11232 5.50004 7.90036 5.41224 7.74408 5.25596C7.5878 5.09968 7.5 4.88772 7.5 4.66671Z" fill="#95C6F9"/>
</g>
<defs>
<clipPath id="clip0_101_25103">
<rect width="20" height="20" fill="white" transform="translate(0 0.5)"/>
</clipPath>
</defs>
</svg>
