<svg width="16" height="17" viewBox="0 0 16 17" fill="none" xmlns="http://www.w3.org/2000/svg">
<path d="M4.27602 6.5H11.724C11.8559 6.50003 11.9847 6.53914 12.0943 6.6124C12.2039 6.68565 12.2894 6.78976 12.3398 6.91156C12.3903 7.03336 12.4035 7.16739 12.3777 7.29669C12.352 7.42599 12.2886 7.54477 12.1954 7.638L8.47135 11.362C8.34634 11.487 8.1768 11.5572 8.00002 11.5572C7.82325 11.5572 7.65371 11.487 7.52869 11.362L3.80469 7.638C3.71148 7.54477 3.64801 7.42599 3.6223 7.29669C3.59659 7.16739 3.60979 7.03336 3.66024 6.91156C3.71068 6.78976 3.79611 6.68565 3.90572 6.6124C4.01532 6.53914 4.14419 6.50003 4.27602 6.5Z" fill="#007BFC"/>
</svg>
