<svg width="32" height="32" viewBox="0 0 32 32" fill="none" xmlns="http://www.w3.org/2000/svg">
<g id="chart-histogram 1" clip-path="url(#clip0_199_24028)">
<path id="Vector" d="M30.6667 29.3333H6.66667C5.6058 29.3333 4.58839 28.9119 3.83824 28.1618C3.08809 27.4116 2.66667 26.3942 2.66667 25.3333V1.33333C2.66667 0.979711 2.52619 0.640573 2.27614 0.390524C2.02609 0.140476 1.68696 0 1.33333 0C0.979711 0 0.640573 0.140476 0.390524 0.390524C0.140476 0.640573 0 0.979711 0 1.33333L0 25.3333C0.00211714 27.1008 0.705176 28.7953 1.95496 30.045C3.20474 31.2948 4.89921 31.9979 6.66667 32H30.6667C31.0203 32 31.3594 31.8595 31.6095 31.6095C31.8595 31.3594 32 31.0203 32 30.6667C32 30.313 31.8595 29.9739 31.6095 29.7239C31.3594 29.4738 31.0203 29.3333 30.6667 29.3333Z" fill="#007BFC"/>
<path id="Vector_2" d="M8.00002 26.6666C8.35364 26.6666 8.69278 26.5262 8.94283 26.2761C9.19288 26.0261 9.33335 25.6869 9.33335 25.3333V16C9.33335 15.6463 9.19288 15.3072 8.94283 15.0572C8.69278 14.8071 8.35364 14.6666 8.00002 14.6666C7.6464 14.6666 7.30726 14.8071 7.05721 15.0572C6.80716 15.3072 6.66669 15.6463 6.66669 16V25.3333C6.66669 25.6869 6.80716 26.0261 7.05721 26.2761C7.30726 26.5262 7.6464 26.6666 8.00002 26.6666Z" fill="#007BFC"/>
<path id="Vector_3" d="M13.3333 13.3333V25.3333C13.3333 25.687 13.4738 26.0261 13.7238 26.2761C13.9739 26.5262 14.313 26.6667 14.6666 26.6667C15.0203 26.6667 15.3594 26.5262 15.6095 26.2761C15.8595 26.0261 16 25.687 16 25.3333V13.3333C16 12.9797 15.8595 12.6406 15.6095 12.3905C15.3594 12.1405 15.0203 12 14.6666 12C14.313 12 13.9739 12.1405 13.7238 12.3905C13.4738 12.6406 13.3333 12.9797 13.3333 13.3333Z" fill="#007BFC"/>
<path id="Vector_4" d="M20 17.3333V25.3333C20 25.687 20.1405 26.0261 20.3905 26.2761C20.6406 26.5262 20.9797 26.6667 21.3333 26.6667C21.687 26.6667 22.0261 26.5262 22.2761 26.2761C22.5262 26.0261 22.6667 25.687 22.6667 25.3333V17.3333C22.6667 16.9797 22.5262 16.6406 22.2761 16.3905C22.0261 16.1405 21.687 16 21.3333 16C20.9797 16 20.6406 16.1405 20.3905 16.3905C20.1405 16.6406 20 16.9797 20 17.3333Z" fill="#007BFC"/>
<path id="Vector_5" d="M26.6667 12V25.3333C26.6667 25.6869 26.8072 26.0261 27.0572 26.2761C27.3073 26.5262 27.6464 26.6666 28 26.6666C28.3536 26.6666 28.6928 26.5262 28.9428 26.2761C29.1929 26.0261 29.3334 25.6869 29.3334 25.3333V12C29.3334 11.6463 29.1929 11.3072 28.9428 11.0572C28.6928 10.8071 28.3536 10.6666 28 10.6666C27.6464 10.6666 27.3073 10.8071 27.0572 11.0572C26.8072 11.3072 26.6667 11.6463 26.6667 12Z" fill="#007BFC"/>
<path id="Vector_6" d="M7.99998 12C8.35357 11.9999 8.69266 11.8594 8.94265 11.6093L13.724 6.82797C13.9781 6.58587 14.3157 6.45083 14.6666 6.45083C15.0176 6.45083 15.3552 6.58587 15.6093 6.82797L18.5053 9.72397C19.2554 10.4739 20.2727 10.8951 21.3333 10.8951C22.394 10.8951 23.4112 10.4739 24.1613 9.72397L31.6093 2.27597C31.8522 2.0245 31.9866 1.6877 31.9835 1.3381C31.9805 0.988509 31.8403 0.654093 31.5931 0.406882C31.3459 0.159671 31.0114 0.0194457 30.6618 0.0164078C30.3123 0.0133699 29.9754 0.147762 29.724 0.39064L22.276 7.83731C22.0259 8.08727 21.6869 8.22769 21.3333 8.22769C20.9798 8.22769 20.6407 8.08727 20.3906 7.83731L17.4946 4.94264C16.7445 4.19276 15.7273 3.77149 14.6666 3.77149C13.606 3.77149 12.5888 4.19276 11.8386 4.94264L7.05731 9.72397C6.8709 9.91044 6.74396 10.148 6.69254 10.4066C6.64111 10.6652 6.66752 10.9332 6.76841 11.1768C6.8693 11.4204 7.04016 11.6287 7.25937 11.7752C7.47858 11.9217 7.73631 11.9999 7.99998 12Z" fill="#007BFC"/>
</g>
<defs>
<clipPath id="clip0_199_24028">
<rect width="32" height="32" fill="white"/>
</clipPath>
</defs>
</svg>
