<svg width="60" height="60" viewBox="0 0 60 60" fill="none" xmlns="http://www.w3.org/2000/svg">
<g id="Frame 38372">
<path id="Vector" fill-rule="evenodd" clip-rule="evenodd" d="M39.1573 3.59867H30.4227V7.268H32.438H32.4407H37.142H37.1447H39.1573V3.59867ZM55.804 40.6207C54.1973 39.014 51.978 38.0207 49.5267 38.0207C47.0753 38.0207 44.8553 39.0147 43.2493 40.6207C41.6427 42.2273 40.6493 44.4467 40.6493 46.898C40.6493 49.3493 41.6433 51.5693 43.2493 53.1753C44.856 54.782 47.0753 55.7753 49.5267 55.7753C51.978 55.7753 54.198 54.7813 55.804 53.1753C57.4107 51.5687 58.404 49.3493 58.404 46.898C58.404 44.4467 57.41 42.2267 55.804 40.6207ZM45.6093 47.8067C45.272 47.526 45.2253 47.0247 45.5067 46.6867C45.7873 46.3493 46.2887 46.3027 46.6267 46.584L48.9227 48.4973L52.8873 43.584C53.1627 43.2413 53.664 43.1867 54.0073 43.4627C54.35 43.738 54.4047 44.2393 54.1287 44.5827L49.6553 50.1253H49.654L49.646 50.1347C49.3653 50.472 48.864 50.5187 48.526 50.2373L45.6093 47.8067ZM33.2373 11.3853C33.75 11.3467 34.268 11.3267 34.7907 11.3267C35.3133 11.3267 35.8313 11.3467 36.344 11.3853V8.864H33.2373V11.3853ZM39.0553 46.6287C39.0533 46.718 39.052 46.808 39.052 46.898C39.052 47.9007 39.1927 48.87 39.456 49.788C38.8387 49.9453 38.2053 50.0733 37.556 50.1693C36.658 50.302 35.7347 50.3713 34.7907 50.3713C29.62 50.3713 24.9393 48.2753 21.5513 44.8873C18.1633 41.4993 16.0673 36.818 16.0673 31.648C16.0673 26.478 18.1633 21.7967 21.5513 18.4087C24.9393 15.0207 29.6207 12.9247 34.7907 12.9247C39.9607 12.9247 44.642 15.0207 48.03 18.4087C51.418 21.7967 53.514 26.478 53.514 31.648C53.514 32.7067 53.428 33.7367 53.2633 34.7327C53.1393 35.48 52.9707 36.214 52.7593 36.9327C51.7687 36.6113 50.7133 36.434 49.6173 36.4247C49.8013 35.8547 49.9533 35.2713 50.07 34.678C50.264 33.6953 50.3653 32.6827 50.3653 31.648C50.3653 27.3467 48.622 23.4527 45.8033 20.634C42.9847 17.8153 39.0907 16.072 34.7893 16.072C30.488 16.072 26.594 17.8153 23.7753 20.634C20.9567 23.4527 19.2133 27.3467 19.2133 31.648C19.2133 35.9493 20.9567 39.8433 23.7753 42.662C26.594 45.4807 30.488 47.224 34.7893 47.224C35.722 47.224 36.6473 47.1387 37.5567 46.9753C38.0647 46.884 38.564 46.7687 39.0533 46.6293L39.0553 46.6287ZM33.992 24.5007V31.6473C33.992 31.978 34.1933 32.262 34.48 32.3833L39.0413 34.8173C39.4287 35.024 39.9107 34.8773 40.1173 34.49C40.324 34.1027 40.1773 33.6207 39.79 33.414L35.5887 31.172V24.5007C35.5887 24.06 35.2313 23.702 34.79 23.702C34.3487 23.702 33.992 24.0593 33.992 24.5007ZM43.9233 23.644L45.2233 22.344C47.2633 24.63 48.5627 27.5907 48.7467 30.8493H46.908C46.4673 30.8493 46.1093 31.2067 46.1093 31.648C46.1093 32.0893 46.4667 32.4467 46.908 32.4467H48.7467C48.71 33.1027 48.628 33.7453 48.5047 34.372C48.356 35.1253 48.1487 35.8533 47.8873 36.5513C45.6507 36.9027 43.6493 37.9613 42.1187 39.492C40.6693 40.9413 39.6427 42.8133 39.24 44.9073C38.6047 45.1207 37.9487 45.2893 37.2767 45.41C36.73 45.508 36.1667 45.574 35.588 45.6053V43.766C35.588 43.3253 35.2307 42.9673 34.7893 42.9673C34.348 42.9673 33.9907 43.3247 33.9907 43.766V45.6047C30.732 45.4213 27.7713 44.1213 25.4853 42.0813L26.7853 40.7813C27.0973 40.4693 27.0973 39.964 26.7853 39.652C26.4733 39.34 25.968 39.34 25.656 39.652L24.356 40.952C22.316 38.666 21.0167 35.7053 20.8327 32.4467H22.6713C23.112 32.4467 23.47 32.0893 23.47 31.648C23.47 31.2067 23.1127 30.8493 22.6713 30.8493H20.8327C21.016 27.5907 22.316 24.63 24.356 22.344L25.656 23.644C25.968 23.956 26.4733 23.956 26.7853 23.644C27.0973 23.332 27.0973 22.8267 26.7853 22.5147L25.4853 21.2147C27.7713 19.1747 30.732 17.8753 33.9907 17.6913V19.53C33.9907 19.9707 34.348 20.3287 34.7893 20.3287C35.2307 20.3287 35.588 19.9713 35.588 19.53V17.6913C38.8473 17.8747 41.8073 19.1747 44.0933 21.2147L42.7933 22.5147C42.4813 22.8267 42.4813 23.332 42.7933 23.644C43.1053 23.956 43.6113 23.956 43.9233 23.644ZM55.278 12.902L49.3707 7.992L47.366 10.4033L53.2733 15.3133L55.278 12.902ZM50.552 15.1193L48.1573 13.1293L46.544 15.0707C47.3927 15.6733 48.1927 16.3393 48.9373 17.062L50.552 15.1193ZM6.118 15.478C6.55867 15.478 6.91667 15.8353 6.91667 16.2767C6.91667 16.718 6.55933 17.0753 6.118 17.0753H4.19933C3.75867 17.0753 3.40067 16.718 3.40067 16.2767C3.40067 15.8353 3.758 15.478 4.19933 15.478H6.118ZM10.8807 29.246C11.3213 29.246 11.6793 29.6033 11.6793 30.0447C11.6793 30.486 11.322 30.8433 10.8807 30.8433H3.072C2.63133 30.8433 2.27333 30.486 2.27333 30.0447C2.27333 29.6033 2.63067 29.246 3.072 29.246H10.8807ZM1.32733 33.8353C1.768 33.8353 2.126 34.1927 2.126 34.634C2.126 35.0753 1.76867 35.4327 1.32733 35.4327H0.798667C0.358 35.4327 0 35.0753 0 34.634C0 34.1927 0.357333 33.8353 0.798667 33.8353H1.32733ZM12.6107 38.4247C13.0513 38.4247 13.4093 38.782 13.4093 39.2233C13.4093 39.6647 13.052 40.022 12.6107 40.022H11.966C11.5253 40.022 11.1673 39.6647 11.1673 39.2233C11.1673 38.782 11.5247 38.4247 11.966 38.4247H12.6107ZM6.16333 47.604C6.604 47.604 6.962 47.9613 6.962 48.4027C6.962 48.844 6.60467 49.2013 6.16333 49.2013H2.68133C2.24067 49.2013 1.88267 48.844 1.88267 48.4027C1.88267 47.9613 2.24 47.604 2.68133 47.604H6.16333ZM14.0933 20.0673C14.534 20.0673 14.892 20.4247 14.892 20.866C14.892 21.3073 14.5347 21.6647 14.0933 21.6647H2.07133C1.63067 21.6647 1.27267 21.3073 1.27267 20.866C1.27267 20.4247 1.63 20.0673 2.07133 20.0673H14.0933ZM8.468 38.4253C8.90867 38.4253 9.26667 38.7827 9.26667 39.224C9.26667 39.6653 8.90933 40.0227 8.468 40.0227H0.799333C0.358667 40.0227 0.000666618 39.6653 0.000666618 39.224C0.000666618 38.7827 0.358 38.4253 0.799333 38.4253H8.468ZM7.63667 24.6573C8.07733 24.6573 8.43533 25.0147 8.43533 25.456C8.43533 25.8973 8.078 26.2547 7.63667 26.2547H6.67933C6.23867 26.2547 5.88067 25.8973 5.88067 25.456C5.88067 25.0147 6.238 24.6573 6.67933 24.6573H7.63667ZM24.506 49.178C24.444 49.1933 24.3787 49.202 24.312 49.202H15.382C14.9413 49.202 14.5833 48.8447 14.5833 48.4033C14.5833 47.962 14.9407 47.6047 15.382 47.6047H22.2067C21.5807 47.1107 20.9847 46.58 20.4213 46.0167C19.972 45.5673 19.544 45.0973 19.1387 44.608C19.1147 44.61 19.09 44.6113 19.0653 44.6113H7.60467C7.164 44.6113 6.806 44.254 6.806 43.8127C6.806 43.3713 7.16333 43.014 7.60467 43.014H17.944C16.4247 40.766 15.3427 38.198 14.822 35.432H4.89933C4.45867 35.432 4.10067 35.0747 4.10067 34.6333C4.10067 34.192 4.458 33.8347 4.89933 33.8347H14.5867C14.5093 33.116 14.47 32.386 14.47 31.6467C14.47 29.7793 14.722 27.9707 15.194 26.2527H11.106C10.6653 26.2527 10.3073 25.8953 10.3073 25.454C10.3073 25.0127 10.6647 24.6553 11.106 24.6553H15.7047C16.73 21.856 18.3547 19.3453 20.422 17.278C20.4907 17.2093 20.56 17.1413 20.6293 17.074H11.1607C10.72 17.074 10.362 16.7167 10.362 16.2753C10.362 15.834 10.7193 15.4767 11.1607 15.4767H22.482C25.1067 13.476 28.2333 12.0993 31.64 11.5693V8.86333H29.6247C29.184 8.86333 28.826 8.506 28.826 8.06467V2.79867C28.826 2.358 29.1833 2 29.6247 2H39.956C40.3967 2 40.7547 2.35733 40.7547 2.79867V8.06467C40.7547 8.50533 40.3973 8.86333 39.956 8.86333H37.9407V11.5693C40.5613 11.9773 43.016 12.886 45.204 14.194L46.9353 12.1113L45.7387 11.1167C45.4013 10.836 45.3547 10.3347 45.636 9.99667L48.6567 6.362C48.9373 6.02467 49.4387 5.978 49.7767 6.25933L56.9067 12.1853C57.244 12.466 57.2907 12.9673 57.0093 13.3053L53.9887 16.94C53.708 17.2773 53.2067 17.324 52.8687 17.0427L51.7753 16.134L50.042 18.2193C53.1967 21.8 55.11 26.4993 55.11 31.646C55.11 32.7753 55.016 33.8913 54.8347 34.986C54.69 35.86 54.4907 36.7127 54.24 37.5407C55.24 38.0453 56.148 38.706 56.932 39.49C58.8273 41.3853 60 44.004 60 46.8967C60 49.7893 58.8273 52.408 56.932 54.3033C55.0367 56.1987 52.418 57.3713 49.5253 57.3713C46.6327 57.3713 44.014 56.1987 42.1187 54.3033C41.25 53.4347 40.5333 52.4147 40.012 51.286C39.28 51.4807 38.5367 51.6353 37.7853 51.746C36.8033 51.8913 35.8033 51.9667 34.7893 51.9667C31.0373 51.9667 27.5227 50.9493 24.506 49.176V49.178ZM11.4447 47.6127H10.382C9.94133 47.6127 9.58333 47.97 9.58333 48.4113C9.58333 48.8527 9.94067 49.21 10.382 49.21H11.4447C11.8853 49.21 12.2433 48.8527 12.2433 48.4113C12.2433 47.97 11.886 47.6127 11.4447 47.6127Z" fill="#007BFC"/>
</g>
</svg>
