<svg width="60" height="60" viewBox="0 0 60 60" fill="none" xmlns="http://www.w3.org/2000/svg">
<g id="Frame 38371">
<path id="Vector" fill-rule="evenodd" clip-rule="evenodd" d="M47.9711 21.5633C47.9116 21.4706 47.8719 21.3667 47.8542 21.258C47.8366 21.1494 47.8415 21.0382 47.8686 20.9315C47.8957 20.8248 47.9444 20.7248 48.0118 20.6377C48.0791 20.5506 48.1637 20.4783 48.2602 20.4253C48.3566 20.3722 48.463 20.3395 48.5726 20.3293C48.6822 20.3191 48.7928 20.3315 48.8974 20.3657C49.002 20.4 49.0985 20.4554 49.1808 20.5285C49.2632 20.6016 49.3296 20.6908 49.376 20.7907C51.0856 23.8943 52.0663 27.3464 52.2435 30.8854C52.4207 34.4243 51.7899 37.9572 50.3989 41.2161C50.5653 41.3052 50.7178 41.4183 50.8513 41.5517L53.0492 43.7502L55.0455 41.7532C55.1192 41.6745 55.2079 41.6115 55.3063 41.5678C55.4048 41.5242 55.5111 41.5008 55.6188 41.499C55.7265 41.4972 55.8334 41.5171 55.9333 41.5575C56.0332 41.5978 56.1239 41.6579 56.2001 41.734C56.2763 41.8102 56.3364 41.9009 56.3768 42.0007C56.4172 42.1006 56.4372 42.2075 56.4355 42.3152C56.4337 42.4229 56.4104 42.5292 56.3667 42.6277C56.3231 42.7262 56.2602 42.8149 56.1816 42.8886L54.1846 44.8856L56.3818 47.0822C56.7431 47.4446 56.946 47.9355 56.946 48.4472C56.946 48.9589 56.7431 49.4498 56.3818 49.8122L56.1062 50.0891C56.9777 51.2328 57.4048 52.6538 57.3083 54.0884C57.2117 55.5231 56.5981 56.874 55.5812 57.8906C54.5643 58.9072 53.2131 59.5205 51.7785 59.6166C50.3438 59.7127 48.9229 59.2852 47.7795 58.4133L46.7572 59.4368C46.3945 59.7975 45.9037 60 45.3922 60C44.8807 60 44.3899 59.7975 44.0272 59.4368L41.8306 57.239L39.8342 59.2353C39.6817 59.3761 39.4806 59.4523 39.2732 59.4482C39.0657 59.444 38.8679 59.3597 38.7211 59.213C38.5744 59.0663 38.4901 58.8684 38.4859 58.661C38.4818 58.4535 38.5581 58.2524 38.6988 58.0999L40.6952 56.1036L38.4979 53.9051C38.3644 53.7721 38.2513 53.62 38.1623 53.4539C35.6389 54.5343 32.9437 55.1584 30.2022 55.297C30.0921 55.3116 29.9802 55.3033 29.8735 55.2725C29.7668 55.2418 29.6676 55.1892 29.5823 55.1182C29.4969 55.0472 29.4272 54.9592 29.3775 54.8599C29.3278 54.7606 29.2993 54.652 29.2937 54.5411C29.2881 54.4302 29.3055 54.3194 29.3449 54.2155C29.3843 54.1117 29.4448 54.0172 29.5225 53.9379C29.6003 53.8586 29.6936 53.7963 29.7967 53.7549C29.8997 53.7135 30.0102 53.6939 30.1212 53.6974C31.5587 53.6222 32.9851 53.4048 34.3797 53.0484C35.6631 52.722 36.9136 52.2778 38.1153 51.7214C38.2099 51.5183 38.3394 51.3334 38.4979 51.1751L48.1194 41.5529C48.2782 41.3949 48.463 41.2655 48.6658 41.1703C50.0964 38.0768 50.779 34.6901 50.6583 31.2839C50.5376 27.8777 49.6171 24.5478 47.9711 21.5633ZM54.9553 51.2406L48.931 57.2637C49.7653 57.8333 50.7723 58.0936 51.7781 57.9997C52.7839 57.9057 53.7253 57.4635 54.4397 56.7492C55.1541 56.035 55.5966 55.0937 55.6907 54.0879C55.7849 53.0821 55.5247 52.075 54.9553 51.2406ZM16.7282 40.1808C18.2725 40.1812 19.7689 40.7169 20.9624 41.6969C22.156 42.6768 22.9728 44.0402 23.2738 45.5549C23.5748 47.0696 23.3413 48.6417 22.6132 50.0035C21.885 51.3654 20.7072 52.4326 19.2804 53.0234C17.8535 53.6141 16.266 53.6919 14.7883 53.2435C13.3106 52.7951 12.034 51.8481 11.1762 50.564C10.3183 49.28 9.93224 47.7381 10.0837 46.2013C10.2352 44.6645 10.9148 43.2277 12.0068 42.1358C12.6261 41.5148 13.362 41.0223 14.1723 40.6868C14.9826 40.3513 15.8512 40.1794 16.7282 40.1808ZM20.313 43.2712C19.4836 42.4405 18.3918 41.9233 17.2236 41.8075C16.0555 41.6917 14.8834 41.9846 13.907 42.6362C12.9307 43.2879 12.2105 44.2579 11.8693 45.3811C11.528 46.5042 11.5868 47.711 12.0356 48.7956C12.4844 49.8803 13.2955 50.7757 14.3306 51.3293C15.3657 51.883 16.5607 52.0605 17.7121 51.8317C18.8634 51.6029 19.8998 50.982 20.6445 50.0746C21.3893 49.1673 21.7964 48.0298 21.7964 46.856C21.7975 46.1902 21.667 45.5307 21.4124 44.9155C21.1579 44.3003 20.7843 43.7415 20.313 43.2712ZM20.0454 37.2202C20.0064 37.2076 19.9708 37.1865 19.941 37.1584C19.9145 37.1281 19.8947 37.0925 19.8829 37.054L19.4026 35.5768C19.2826 35.2016 19.0462 34.8744 18.7277 34.6425C18.4092 34.4107 18.0252 34.2864 17.6312 34.2875H15.8228C15.4288 34.2864 15.0448 34.4107 14.7263 34.6425C14.4078 34.8744 14.1714 35.2016 14.0514 35.5768L13.5711 37.054C13.5585 37.0929 13.5374 37.1286 13.5093 37.1584C13.4801 37.1864 13.4451 37.2075 13.4067 37.2202C13.2213 37.2858 13.0247 37.3587 12.8245 37.4415C12.6242 37.5243 12.4351 37.6096 12.2583 37.6968C12.2226 37.7158 12.1832 37.7267 12.1428 37.7289C12.1018 37.7266 12.0619 37.7145 12.0266 37.6937L10.6415 36.9891C10.291 36.8101 9.89292 36.7468 9.50426 36.8082C9.1156 36.8696 8.7564 37.0526 8.47821 37.3309L7.19819 38.6109C6.92006 38.8892 6.73714 39.2483 6.67564 39.6369C6.61413 40.0255 6.67719 40.4236 6.85578 40.7742L7.56223 42.1592C7.58198 42.1943 7.5936 42.2334 7.59623 42.2736C7.59503 42.3146 7.58378 42.3547 7.56347 42.3904C7.47735 42.5676 7.39288 42.7563 7.31006 42.9566C7.22724 43.1568 7.15348 43.3507 7.08879 43.5382C7.07605 43.5769 7.05495 43.6123 7.02698 43.642C6.99644 43.6687 6.96034 43.6884 6.92129 43.6995L5.44348 44.1803C5.06798 44.2994 4.74037 44.5354 4.50852 44.8539C4.27668 45.1723 4.15274 45.5566 4.15481 45.9505V47.7608C4.1535 48.1548 4.27771 48.5389 4.50942 48.8575C4.74113 49.1762 5.06829 49.4127 5.44348 49.5328L6.92129 50.0125C6.96074 50.0232 6.99701 50.0434 7.02698 50.0712C7.05468 50.1006 7.07576 50.1356 7.08879 50.1738C7.1506 50.3592 7.22662 50.5564 7.31006 50.7566C7.3935 50.9569 7.47756 51.1454 7.56347 51.3209C7.58342 51.357 7.59464 51.3972 7.59623 51.4384C7.59355 51.4789 7.58195 51.5184 7.56223 51.5539L6.85825 52.9403C6.67947 53.2908 6.6163 53.6889 6.67782 54.0776C6.73933 54.4662 6.92237 54.8253 7.20066 55.1035L8.48069 56.3829C8.75855 56.6617 9.11766 56.8451 9.50637 56.9069C9.89509 56.9686 10.2934 56.9055 10.6439 56.7266L12.0297 56.0207C12.065 55.9999 12.1049 55.9878 12.1458 55.9855C12.1866 55.9884 12.2264 55.9995 12.2627 56.0183C12.4382 56.1056 12.6265 56.1907 12.8276 56.2735C13.0278 56.3563 13.2213 56.4305 13.4098 56.4954C13.4482 56.5064 13.4835 56.5265 13.5124 56.5541C13.5405 56.5844 13.5615 56.6205 13.5742 56.6598L14.0545 58.137C14.1738 58.5125 14.41 58.84 14.7287 59.0716C15.0474 59.3032 15.4319 59.4269 15.8258 59.4245H17.6318C18.0258 59.4269 18.4102 59.3032 18.7289 59.0716C19.0476 58.84 19.2839 58.5125 19.4032 58.137L19.8835 56.6598C19.8953 56.6209 19.9151 56.5849 19.9416 56.5541C19.9712 56.5258 20.007 56.5047 20.046 56.4923C20.2315 56.4305 20.4268 56.3545 20.627 56.2717C20.8273 56.1888 21.0164 56.1036 21.1932 56.0164C21.2294 55.9975 21.2692 55.9864 21.31 55.9837C21.3504 55.9861 21.3896 55.9982 21.4243 56.0189L22.81 56.7253C23.1606 56.9042 23.5589 56.9674 23.9476 56.9056C24.3363 56.8439 24.6954 56.6604 24.9733 56.3817L26.2533 55.1023C26.5317 54.8241 26.7147 54.4649 26.7761 54.0763C26.8375 53.6876 26.7742 53.2894 26.5951 52.939L25.8893 51.5552C25.8697 51.5196 25.8581 51.4801 25.8553 51.4396C25.8574 51.3987 25.8691 51.359 25.8893 51.3234C25.9752 51.1466 26.0611 50.9581 26.1427 50.7579C26.2243 50.5576 26.3003 50.3635 26.3652 50.1763C26.3771 50.1382 26.3971 50.1032 26.4239 50.0737C26.4537 50.0458 26.4897 50.0257 26.529 50.0149L28.0068 49.5353C28.3823 49.4158 28.7097 49.1794 28.9413 48.8606C29.1729 48.5418 29.2966 48.1573 29.2942 47.7633V45.9517C29.2969 45.5579 29.1733 45.1735 28.9416 44.8549C28.7099 44.5364 28.3823 44.3004 28.0068 44.1816L26.529 43.7007C26.4894 43.6917 26.4531 43.6719 26.4241 43.6434C26.3952 43.6149 26.3748 43.5789 26.3652 43.5394C26.3005 43.3519 26.2263 43.1581 26.1427 42.9578C26.059 42.7575 25.9746 42.5688 25.8893 42.3916C25.8691 42.3559 25.8579 42.3158 25.8565 42.2748C25.8593 42.2343 25.8709 42.1948 25.8905 42.1592L26.5963 40.7754C26.7752 40.4249 26.8385 40.0268 26.7771 39.6382C26.7157 39.2496 26.5327 38.8904 26.2546 38.6121L24.9745 37.3321C24.6963 37.0538 24.3371 36.8709 23.9485 36.8095C23.5598 36.7481 23.1617 36.8114 22.8113 36.9903L21.4256 37.6949C21.3904 37.7158 21.3508 37.7279 21.31 37.7302C21.2686 37.7283 21.2282 37.7169 21.1919 37.6968C21.0164 37.6094 20.8281 37.5243 20.627 37.4415C20.4268 37.3587 20.2327 37.2858 20.0454 37.2202ZM20.0114 38.9218C19.8606 38.8596 19.6981 38.7978 19.5238 38.7364C19.2506 38.643 19.0029 38.4875 18.8 38.2821C18.5981 38.0758 18.4475 37.8249 18.3606 37.5497L17.8791 36.0737C17.8646 36.02 17.8322 35.9729 17.7872 35.9402C17.7422 35.9074 17.6874 35.8911 17.6318 35.8939H15.8228C15.767 35.8927 15.7123 35.9091 15.6664 35.9408C15.6228 35.9744 15.591 36.0209 15.5755 36.0737L15.0959 37.5497C15.0082 37.8251 14.857 38.076 14.6545 38.2822C14.452 38.4884 14.2039 38.6442 13.9302 38.737C13.7559 38.7971 13.5934 38.859 13.4426 38.9224C13.2887 38.9842 13.1335 39.059 12.9654 39.1394C12.7061 39.2661 12.4209 39.3307 12.1324 39.3282C11.8438 39.3256 11.5598 39.2559 11.3028 39.1245L9.91647 38.4187C9.86892 38.3896 9.81256 38.3784 9.7575 38.3871C9.70244 38.3958 9.6523 38.4239 9.61608 38.4663L8.33606 39.7463C8.29535 39.7837 8.268 39.8334 8.25818 39.8878C8.25143 39.9426 8.26179 39.9981 8.28785 40.0467L8.9943 41.4343C9.12612 41.6913 9.19605 41.9756 9.19852 42.2645C9.20099 42.5534 9.13593 42.8388 9.00852 43.0981C8.92817 43.2631 8.85524 43.422 8.79281 43.5753C8.73039 43.7285 8.6692 43.8874 8.60739 44.0617C8.5139 44.3352 8.35793 44.5833 8.15187 44.7861C7.94608 44.9887 7.69535 45.1399 7.42008 45.2274L5.94227 45.707C5.88967 45.7238 5.84336 45.7561 5.80938 45.7997C5.77899 45.8454 5.76325 45.8993 5.76426 45.9542V47.7645C5.76296 47.8197 5.77872 47.8738 5.80938 47.9197C5.84271 47.9638 5.88928 47.996 5.94227 48.0118L7.42008 48.492C7.69542 48.5793 7.94645 48.7299 8.15298 48.9318C8.35952 49.1337 8.51579 49.3813 8.60924 49.6546C8.6694 49.8289 8.73121 49.9917 8.79467 50.1429C8.85647 50.2949 8.93002 50.4519 9.01037 50.62C9.13748 50.8791 9.20238 51.1642 9.19991 51.4527C9.19744 51.7412 9.12768 52.0252 8.99616 52.282L8.2897 53.6671C8.26366 53.7162 8.2533 53.7721 8.26003 53.8272C8.27024 53.8817 8.29751 53.9314 8.33791 53.9694L9.61794 55.2488C9.65565 55.2892 9.7052 55.3167 9.75948 55.3273C9.81441 55.3336 9.86995 55.3226 9.91832 55.2957L11.3028 54.5893C11.56 54.4582 11.8442 54.3888 12.1329 54.3866C12.4214 54.3836 12.7066 54.4486 12.9654 54.5763C13.1304 54.6573 13.2887 54.729 13.4426 54.7926C13.5965 54.8563 13.7559 54.9162 13.9302 54.9781C14.204 55.0703 14.4522 55.2258 14.6548 55.4318C14.8573 55.6379 15.0084 55.8888 15.0959 56.1641L15.5755 57.6413C15.5908 57.6939 15.6227 57.74 15.6664 57.773C15.7123 57.8047 15.767 57.8211 15.8228 57.8199H17.6318C17.6876 57.8211 17.7423 57.8047 17.7882 57.773C17.8317 57.7399 17.8636 57.6937 17.8791 57.6413L18.3606 56.1629C18.4479 55.8879 18.5989 55.6374 18.8012 55.4317C19.0038 55.226 19.2514 55.0701 19.5244 54.9762C19.6987 54.9169 19.8612 54.8551 20.012 54.7908C20.1653 54.729 20.3211 54.6554 20.4904 54.5744C20.7496 54.4473 21.0348 54.3825 21.3235 54.3851C21.6121 54.3876 21.8962 54.4576 22.153 54.5893L23.5381 55.2939C23.5857 55.3228 23.6419 55.334 23.6969 55.3254C23.7519 55.3168 23.8021 55.289 23.8385 55.2469L25.1185 53.9675C25.1587 53.9294 25.1859 53.8797 25.1964 53.8253C25.2031 53.7702 25.1928 53.7143 25.1668 53.6653L24.4603 52.2802C24.3288 52.0233 24.259 51.7394 24.2565 51.4509C24.2541 51.1623 24.319 50.8772 24.4461 50.6182C24.5264 50.4525 24.5994 50.2931 24.6618 50.141C24.7242 49.989 24.7854 49.827 24.8472 49.6527C24.9396 49.3791 25.0952 49.1311 25.3012 48.9287C25.5073 48.7263 25.758 48.5752 26.0333 48.4877L27.5111 48.0074C27.5641 47.992 27.6105 47.9597 27.6434 47.9153C27.675 47.87 27.6911 47.8155 27.6891 47.7602V45.9517C27.6908 45.8967 27.6748 45.8425 27.6434 45.7972C27.6099 45.7534 27.5637 45.7211 27.5111 45.7045L26.0333 45.2249C25.758 45.1374 25.5073 44.9862 25.3015 44.7836C25.0954 44.5808 24.9395 44.3328 24.846 44.0592C24.7862 43.8849 24.7244 43.7224 24.6606 43.5715C24.5987 43.4195 24.5252 43.2625 24.4448 43.0944C24.3182 42.8355 24.2537 42.5507 24.2564 42.2625C24.2591 41.9743 24.3289 41.6907 24.4603 41.4343L25.1668 40.0492C25.1928 40.0005 25.2032 39.9451 25.1964 39.8903C25.1863 39.836 25.159 39.7864 25.1185 39.7488L23.8385 38.4675C23.8023 38.4251 23.7522 38.3971 23.6971 38.3883C23.642 38.3796 23.5857 38.3908 23.5381 38.4199L22.1518 39.1258C21.8948 39.257 21.6108 39.3266 21.3222 39.3291C21.0336 39.3316 20.7484 39.2668 20.4892 39.14C20.3242 39.0596 20.1641 38.9867 20.012 38.923L20.0114 38.9218ZM39.1568 4.52366H37.7402V3.91734C37.74 3.46747 37.5613 3.03605 37.2433 2.71783C36.9253 2.39961 36.4941 2.2206 36.0442 2.22011H35.5448V0.803492C35.5448 0.590393 35.4601 0.386022 35.3094 0.235337C35.1588 0.0846534 34.9544 0 34.7413 0C34.5282 0 34.3238 0.0846534 34.1731 0.235337C34.0225 0.386022 33.9378 0.590393 33.9378 0.803492V2.22011H30.5057V0.803492C30.5057 0.590393 30.421 0.386022 30.2703 0.235337C30.1196 0.0846534 29.9153 0 29.7022 0C29.4891 0 29.2847 0.0846534 29.134 0.235337C28.9833 0.386022 28.8987 0.590393 28.8987 0.803492V2.22011H25.4684V0.803492C25.4684 0.590393 25.3837 0.386022 25.233 0.235337C25.0823 0.0846534 24.878 0 24.6649 0C24.4518 0 24.2474 0.0846534 24.0967 0.235337C23.946 0.386022 23.8614 0.590393 23.8614 0.803492V2.22011H23.3607C22.9112 2.22077 22.4803 2.39993 22.1629 2.7182C21.8454 3.03648 21.6674 3.4678 21.6679 3.91734V4.52613H20.25C20.1445 4.52613 20.04 4.54692 19.9425 4.5873C19.845 4.62768 19.7565 4.68686 19.6818 4.76147C19.6072 4.83608 19.548 4.92466 19.5077 5.02214C19.4673 5.11963 19.4465 5.22411 19.4465 5.32963C19.4465 5.43514 19.4673 5.53963 19.5077 5.63711C19.548 5.73459 19.6072 5.82317 19.6818 5.89778C19.7565 5.97239 19.845 6.03158 19.9425 6.07196C20.04 6.11234 20.1445 6.13312 20.25 6.13312H21.6679V15.1446H11.2509C11.0513 14.1294 10.4809 13.2249 9.6509 12.6072C8.82089 11.9895 7.79068 11.7029 6.76092 11.8031C5.73116 11.9034 4.7756 12.3834 4.08036 13.1496C3.38513 13.9159 3 14.9135 3 15.9481C3 16.9827 3.38513 17.9803 4.08036 18.7465C4.7756 19.5128 5.73116 19.9928 6.76092 20.093C7.79068 20.1933 8.82089 19.9067 9.6509 19.289C10.4809 18.6713 11.0513 17.7668 11.2509 16.7516H21.6747C21.7139 17.1724 21.9086 17.5635 22.2207 17.8484C22.5328 18.1333 22.94 18.2916 23.3626 18.2924H24.4955V24.3903H20.9589C20.7593 23.3751 20.1889 22.4706 19.3589 21.8529C18.5289 21.2352 17.4987 20.9486 16.469 21.0489C15.4392 21.1491 14.4836 21.6291 13.7884 22.3954C13.0932 23.1616 12.708 24.1592 12.708 25.1938C12.708 26.2284 13.0932 27.226 13.7884 27.9923C14.4836 28.7585 15.4392 29.2385 16.469 29.3388C17.4987 29.4391 18.5289 29.1524 19.3589 28.5347C20.1889 27.917 20.7593 27.0125 20.9589 25.9973H25.2978C25.5109 25.9973 25.7153 25.9127 25.8659 25.762C26.0166 25.6113 26.1013 25.4069 26.1013 25.1938V18.2918H28.9011V26.213C27.8863 26.4126 26.9821 26.9829 26.3646 27.8126C25.7471 28.6424 25.4606 29.6723 25.5609 30.7017C25.6612 31.7311 26.1411 32.6864 26.9071 33.3814C27.6731 34.0764 28.6703 34.4614 29.7046 34.4614C30.7389 34.4614 31.7362 34.0764 32.5022 33.3814C33.2682 32.6864 33.7481 31.7311 33.8483 30.7017C33.9486 29.6723 33.6621 28.6424 33.0447 27.8126C32.4272 26.9829 31.523 26.4126 30.5081 26.213V18.2918H33.3061V25.192C33.3061 25.4051 33.3908 25.6094 33.5415 25.7601C33.6922 25.9108 33.8965 25.9955 34.1096 25.9955H38.4491C38.6487 27.0111 39.2193 27.9162 40.0496 28.5342C40.88 29.1522 41.9107 29.4391 42.941 29.3388C43.9712 29.2385 44.9272 28.7583 45.6228 27.9917C46.3184 27.2251 46.7037 26.2271 46.7037 25.192C46.7037 24.1568 46.3184 23.1588 45.6228 22.3922C44.9272 21.6256 43.9712 21.1454 42.941 21.0451C41.9107 20.9449 40.88 21.2317 40.0496 21.8497C39.2193 22.4678 38.6487 23.3728 38.4491 24.3885H34.9131V18.2918H36.0442C36.4668 18.291 36.874 18.1327 37.1861 17.8478C37.4982 17.5628 37.6929 17.1718 37.7321 16.751H48.1559C48.3555 17.7667 48.9261 18.6717 49.7565 19.2897C50.5868 19.9078 51.6175 20.1946 52.6478 20.0943C53.678 19.994 54.634 19.5138 55.3296 18.7472C56.0252 17.9807 56.4105 16.9826 56.4105 15.9475C56.4105 14.9123 56.0252 13.9143 55.3296 13.1477C54.634 12.3811 53.678 11.9009 52.6478 11.8007C51.6175 11.7004 50.5868 11.9872 49.7565 12.6052C48.9261 13.2233 48.3555 14.1283 48.1559 15.144H37.7402V6.12818H39.1568C39.3699 6.12818 39.5743 6.04352 39.7249 5.89284C39.8756 5.74215 39.9603 5.53778 39.9603 5.32468C39.9603 5.11158 39.8756 4.90721 39.7249 4.75653C39.5743 4.60584 39.3699 4.52119 39.1568 4.52119V4.52366ZM27.2645 7.81675H32.1423V12.6939H27.2645V7.81675ZM25.6575 13.0969V7.415C25.6577 7.09611 25.7843 6.7903 26.0097 6.5647C26.2351 6.33909 26.5408 6.21211 26.8596 6.21162H32.5459C32.8649 6.21227 33.1706 6.33926 33.3961 6.5648C33.6216 6.79034 33.7486 7.09604 33.7493 7.415V13.0969C33.7488 13.4161 33.6218 13.7221 33.3961 13.9477C33.1704 14.1734 32.8645 14.3004 32.5453 14.3009H26.859C26.5404 14.3004 26.2349 14.1736 26.0095 13.9483C25.7842 13.7229 25.6574 13.4175 25.6569 13.0988L25.6575 13.0969ZM27.1409 30.3022C27.1403 30.8953 27.3455 31.4702 27.7214 31.9289C28.0972 32.3877 28.6206 32.7019 29.2022 32.818C29.7838 32.9341 30.3877 32.845 30.9109 32.5657C31.4341 32.2865 31.8443 31.8344 32.0715 31.2866C32.2988 30.7388 32.329 30.1291 32.1571 29.5615C31.9852 28.9939 31.6217 28.5034 31.1287 28.1738C30.6357 27.8441 30.0436 27.6956 29.4534 27.7536C28.8631 27.8116 28.3113 28.0725 27.8918 28.4918C27.6535 28.7292 27.4644 29.0113 27.3355 29.322C27.2067 29.6327 27.1405 29.9658 27.1409 30.3022ZM44.3474 27.0035C44.7658 26.5845 45.0261 26.0334 45.0838 25.444C45.1416 24.8546 44.9932 24.2634 44.664 23.7712C44.3347 23.2789 43.845 22.916 43.2782 22.7443C42.7115 22.5726 42.1027 22.6027 41.5557 22.8295C41.0086 23.0563 40.5571 23.4657 40.278 23.9881C39.9989 24.5104 39.9096 25.1133 40.0252 25.6941C40.1408 26.2749 40.4541 26.7977 40.9119 27.1734C41.3697 27.5491 41.9436 27.7544 42.5358 27.7545C42.8723 27.7548 43.2056 27.6887 43.5165 27.5598C43.8274 27.4309 44.1098 27.2419 44.3474 27.0035ZM14.3091 25.192C14.3093 24.5992 14.5149 24.0249 14.8911 23.5668C15.2672 23.1088 15.7906 22.7953 16.3719 22.6798C16.9533 22.5643 17.5567 22.654 18.0793 22.9336C18.602 23.2132 19.0115 23.6653 19.2382 24.213C19.4649 24.7606 19.4946 25.37 19.3224 25.9371C19.1501 26.5042 18.7866 26.9941 18.2936 27.3232C17.8007 27.6524 17.2089 27.8004 16.619 27.7421C16.0292 27.6838 15.4778 27.4228 15.0588 27.0035C14.8207 26.7658 14.6319 26.4834 14.5032 26.1725C14.3746 25.8617 14.3086 25.5284 14.3091 25.192ZM49.685 15.9481C49.6849 15.3554 49.8903 14.7809 50.2662 14.3226C50.6422 13.8644 51.1654 13.5507 51.7467 13.4349C52.328 13.3192 52.9315 13.4086 53.4543 13.688C53.9771 13.9673 54.3868 14.4193 54.6137 14.9669C54.8406 15.5145 54.8706 16.1238 54.6986 16.691C54.5265 17.2583 54.1632 17.7483 53.6703 18.0776C53.1775 18.4069 52.5857 18.5552 51.9958 18.4971C51.406 18.439 50.8545 18.1782 50.4354 17.759C50.1974 17.5213 50.0086 17.239 49.8798 16.9283C49.7511 16.6175 49.6849 16.2845 49.685 15.9481ZM4.60167 15.9481C4.6028 15.3558 4.80923 14.7822 5.1858 14.325C5.56236 13.8678 6.08578 13.5553 6.66689 13.4407C7.24801 13.3261 7.85088 13.4165 8.37283 13.6965C8.89477 13.9765 9.30351 14.4288 9.52943 14.9763C9.75534 15.5238 9.78446 16.1327 9.61182 16.6993C9.43918 17.2659 9.07546 17.7551 8.58261 18.0837C8.08977 18.4122 7.49827 18.5597 6.90887 18.5011C6.31948 18.4424 5.76863 18.1813 5.35016 17.7621C5.11215 17.5245 4.9234 17.2422 4.79475 16.9314C4.66609 16.6206 4.60006 16.2875 4.60044 15.9512L4.60167 15.9481ZM23.273 3.91734C23.2736 3.89396 23.2833 3.87176 23.3002 3.85553C23.3081 3.847 23.3177 3.84014 23.3283 3.83537C23.3389 3.83059 23.3503 3.82799 23.362 3.82771H36.0442C36.0558 3.82799 36.0673 3.83059 36.0779 3.83537C36.0885 3.84014 36.0981 3.847 36.106 3.85553C36.1228 3.87176 36.1326 3.89396 36.1332 3.91734V16.5958C36.1327 16.6195 36.1231 16.6421 36.1065 16.6589C36.0898 16.6757 36.0672 16.6854 36.0436 16.6861H23.3626C23.3389 16.6854 23.3164 16.6757 23.2997 16.6589C23.283 16.6421 23.2735 16.6195 23.273 16.5958V3.91734ZM41.8306 54.97L51.9101 44.8868L49.7122 42.6883C49.6508 42.6284 49.5684 42.5949 49.4826 42.5949C49.3968 42.5949 49.3144 42.6284 49.253 42.6883L39.6327 52.3123C39.5725 52.3737 39.5387 52.4562 39.5387 52.5422C39.5387 52.6282 39.5725 52.7108 39.6327 52.7722L41.8306 54.97ZM53.0473 46.021L42.9647 56.1036L45.1632 58.3014C45.2247 58.3617 45.3073 58.3955 45.3934 58.3955C45.4795 58.3955 45.5622 58.3617 45.6237 58.3014L55.2477 48.6793C55.3077 48.6178 55.3412 48.5353 55.341 48.4494C55.3414 48.4067 55.3333 48.3643 55.3173 48.3248C55.3013 48.2852 55.2776 48.2492 55.2477 48.2188L53.0473 46.021ZM7.65618 35.8444C7.67961 36.0481 7.6243 36.253 7.50157 36.4172C7.37884 36.5815 7.19798 36.6926 6.99601 36.7278C6.79405 36.763 6.58625 36.7197 6.41518 36.6067C6.2441 36.4938 6.12268 36.3197 6.07577 36.1201C5.20041 31.1743 5.94457 26.0781 8.19761 21.5892C8.29589 21.4045 8.46261 21.2656 8.66206 21.2023C8.8615 21.139 9.07781 21.1563 9.26465 21.2505C9.45149 21.3447 9.59399 21.5084 9.66164 21.7064C9.7293 21.9044 9.71671 22.121 9.62659 22.3099C7.52996 26.4921 6.83891 31.2393 7.65618 35.8457V35.8444Z" fill="#007BFC"/>
</g>
</svg>
