<svg width="60" height="60" viewBox="0 0 60 60" fill="none" xmlns="http://www.w3.org/2000/svg">
<g id="Frame 38370">
<path id="Vector" d="M30.0001 8C25.4617 8 21.769 11.6929 21.769 16.2311C21.769 18.6801 22.8478 20.8715 24.5485 22.3827L23.013 22.9318C21.6767 23.408 20.4959 24.1806 19.5387 25.1524C19.1014 24.8997 18.6495 24.6859 18.183 24.5207L16.944 24.0785C18.4211 22.7131 19.3589 20.7646 19.3589 18.5975C19.3589 14.4769 16.0062 11.1289 11.8904 11.1289C7.77469 11.1289 4.4218 14.4817 4.4218 18.5975C4.4218 20.7646 5.35475 22.7131 6.83677 24.0785L5.59769 24.5207C2.24977 25.7161 0 28.9085 0 32.4607V39.1083C0 39.5796 0.379013 39.9586 0.850351 39.9586H20.724C21.1565 44.7011 25.1507 48.4279 30 48.4279C34.8493 48.4279 38.8437 44.701 39.276 39.9586H59.1497C59.621 39.9586 60 39.5796 60 39.1083V32.4607C60 28.9087 57.7502 25.7161 54.4023 24.5207L53.1632 24.0785C54.6404 22.7131 55.5782 20.7646 55.5782 18.5975C55.5782 14.4769 52.2254 11.1289 48.1096 11.1289C43.994 11.1289 40.6411 14.4817 40.6411 18.5975C40.6411 20.7646 41.574 22.7131 43.056 24.0785L41.817 24.5207C41.3505 24.6859 40.8986 24.8997 40.4613 25.1524C39.4992 24.1806 38.3233 23.4128 36.987 22.9318L35.4515 22.3827C37.1522 20.8715 38.231 18.6801 38.231 16.2311C38.231 11.6927 34.5383 8 30.0001 8ZM29.9953 9.70555C33.5959 9.70555 36.5259 12.6356 36.5259 16.2362C36.5259 19.8368 33.5959 22.7668 29.9953 22.7668C26.3946 22.7668 23.4646 19.8368 23.4646 16.2362C23.4646 12.6356 26.3946 9.70555 29.9953 9.70555ZM11.8805 12.8299C15.0584 12.8299 17.6483 15.4199 17.6483 18.5977C17.6483 21.7755 15.0583 24.3654 11.8805 24.3654C8.70266 24.3654 6.11279 21.7804 6.11279 18.5977C6.11279 15.4149 8.70272 12.8299 11.8805 12.8299ZM48.105 12.8299C51.2829 12.8299 53.8728 15.4199 53.8728 18.5977C53.8728 21.7755 51.2828 24.3654 48.105 24.3654C44.9272 24.3654 42.3373 21.7804 42.3373 18.5977C42.3373 15.4149 44.9272 12.8299 48.105 12.8299ZM26.2828 23.5731C27.4004 24.1417 28.6588 24.4672 30 24.4672C31.3411 24.4672 32.5996 24.1417 33.7172 23.5731L36.4189 24.5353C39.4365 25.614 41.4675 28.4906 41.4675 31.6978V38.2627H39.281C38.8485 33.5202 34.8543 29.7934 30.005 29.7934C25.1556 29.7934 21.1612 33.5203 20.729 38.2627H18.5424V31.6978H18.5327C18.5327 28.4908 20.5589 25.6142 23.5813 24.5353L26.2828 23.5731ZM8.54244 25.2738C9.54828 25.7792 10.6804 26.0707 11.8806 26.0707C13.0809 26.0707 14.213 25.7792 15.2189 25.2738L17.6047 26.1242C17.8865 26.2262 18.1635 26.3477 18.4355 26.4886C17.4151 27.995 16.8321 29.7977 16.8321 31.6976V38.2624H1.69093V32.4607C1.69093 29.623 3.48393 27.0768 6.15645 26.1241L8.54244 25.2738ZM44.7719 25.2738C45.7778 25.7792 46.9099 26.0707 48.1101 26.0707C49.3103 26.0707 50.4425 25.7792 51.4483 25.2738L53.8341 26.1242C56.5067 27.0765 58.2997 29.6276 58.2997 32.4608V38.2625H43.1585V31.6977C43.1585 29.7978 42.5706 27.9951 41.555 26.4887C41.8272 26.3478 42.1041 26.2263 42.3859 26.1243L44.7719 25.2738ZM29.9953 31.4935C34.1984 31.4935 37.6143 34.9095 37.6143 39.1126C37.6143 43.3108 34.1984 46.7317 29.9953 46.7317C25.7922 46.7317 22.3762 43.3157 22.3762 39.1126C22.3762 34.9095 25.7922 31.4935 29.9953 31.4935ZM33.8582 36.2603C33.6396 36.2603 33.4233 36.3429 33.2557 36.5081L29.1449 40.6189L26.7348 38.2088C26.4044 37.8784 25.865 37.8784 25.5346 38.2088C25.2041 38.5392 25.2041 39.0786 25.5346 39.409L28.5472 42.4217C28.7125 42.5869 28.9311 42.6695 29.1498 42.6695C29.3684 42.6695 29.5871 42.5869 29.7523 42.4217L34.4656 37.7084C34.796 37.378 34.796 36.8386 34.4656 36.5082C34.2955 36.343 34.0769 36.2603 33.8582 36.2603ZM20.9792 47.2809C20.763 47.2809 20.5443 47.3635 20.3791 47.5287C20.0487 47.8591 20.0487 48.3985 20.3791 48.7289C23.0273 51.3868 26.5113 52.7134 29.9953 52.7134C33.4793 52.7134 36.9632 51.3868 39.6165 48.7338C39.9469 48.4034 39.9469 47.864 39.6165 47.5336C39.2861 47.2031 38.7467 47.1983 38.4163 47.5287C33.7759 52.1691 26.2202 52.1691 21.5797 47.5287C21.4145 47.3635 21.1979 47.2809 20.9792 47.2809Z" fill="#007BFC"/>
</g>
</svg>
