<svg width="60" height="60" viewBox="0 0 60 60" fill="none" xmlns="http://www.w3.org/2000/svg">
<g id="Frame 38369">
<path id="Vector" d="M13.123 11.9138C13.3997 11.465 13.2601 10.8765 12.8113 10.5997C12.3625 10.323 11.774 10.4626 11.4972 10.9114L11.4199 11.0336C11.1432 11.4824 11.2828 12.0709 11.7316 12.3476C12.1804 12.6244 12.7689 12.4848 13.0457 12.036L13.123 11.9138ZM27.8068 17.0827L25.8196 19.9452L25.7348 20.0349L25.6201 20.0898L22.1368 21.1395C21.8077 21.2517 21.5159 21.4287 21.279 21.6606C21.0172 21.9175 20.8227 22.2316 20.7055 22.5956C20.5858 22.9572 20.5584 23.3287 20.6207 23.6902C20.6806 24.0443 20.8302 24.3834 21.0621 24.6901L23.2089 27.5127C23.2364 27.5476 23.2563 27.5875 23.2688 27.6274L23.2862 27.757L23.2089 31.3002C23.2015 31.6842 23.2788 32.0483 23.4408 32.3699C23.6004 32.694 23.8423 32.9783 24.154 33.2027C24.4607 33.4246 24.8047 33.5668 25.1663 33.6191C25.5253 33.6715 25.8943 33.6366 26.2559 33.5094L29.6021 32.34L29.7292 32.3176L29.8564 32.34L33.2026 33.5094C33.5641 33.6341 33.9356 33.6715 34.2922 33.6191L34.3371 33.6116C34.6812 33.5543 35.0128 33.4147 35.3045 33.2027C35.6137 32.9808 35.8531 32.6941 36.0152 32.3699C36.1772 32.0482 36.257 31.6842 36.2471 31.3002L36.1698 27.757L36.1847 27.6274L36.2471 27.5127L38.3939 24.6926C38.6258 24.3884 38.7754 24.0468 38.8352 23.6927C38.8951 23.3337 38.8702 22.9622 38.7505 22.6006L38.7305 22.5458C38.6108 22.2067 38.4213 21.9099 38.177 21.6706C37.9152 21.4162 37.596 21.2292 37.232 21.117C36.6236 20.935 33.9381 20.2842 33.6339 19.9476L31.6142 17.0353C31.3998 16.7236 31.1205 16.4768 30.7939 16.3047C30.4672 16.1352 30.1082 16.0454 29.7316 16.0454C29.3551 16.0454 28.9936 16.1352 28.6694 16.3047C28.3428 16.4768 28.0635 16.7211 27.8491 17.0303L27.8141 17.0827L27.8068 17.0827ZM27.3904 21.0298L29.4126 18.12C29.455 18.0601 29.4999 18.0152 29.5448 17.9928C29.5897 17.9704 29.652 17.9579 29.7268 17.9579C29.8016 17.9579 29.8639 17.9704 29.9088 17.9928C29.9512 18.0152 29.9986 18.0601 30.041 18.12L32.0607 21.0298C32.2028 21.2343 32.3674 21.4088 32.5519 21.5509L32.5968 21.5858C32.7763 21.7155 32.9758 21.8152 33.1977 21.8925L36.6835 22.9447C36.7458 22.9622 36.8007 22.9946 36.8431 23.0345C36.8755 23.0669 36.9029 23.1118 36.9228 23.1642L36.9303 23.1916C36.9503 23.2564 36.9578 23.3187 36.9478 23.3736C36.9378 23.4334 36.9104 23.4908 36.873 23.5432L34.7261 26.3632C34.564 26.5777 34.4419 26.8046 34.3646 27.039C34.2873 27.2858 34.2549 27.5327 34.2574 27.7895L34.3346 31.3401C34.3371 31.405 34.3222 31.4673 34.2972 31.5197C34.2748 31.5695 34.2324 31.6169 34.1776 31.6568C34.1252 31.6942 34.0753 31.7191 34.028 31.7291L34.0105 31.7316C33.9531 31.7391 33.8908 31.7316 33.826 31.7117L30.4798 30.5423C30.2255 30.4525 29.9736 30.4076 29.7243 30.4076C29.4749 30.4076 29.2231 30.4525 28.9688 30.5423L25.6226 31.7117C25.5602 31.7341 25.4954 31.7416 25.4381 31.7316C25.3857 31.7241 25.3283 31.6992 25.271 31.6568C25.2161 31.6169 25.1738 31.5695 25.1488 31.5197C25.1239 31.4673 25.1114 31.405 25.1114 31.3401L25.1887 27.797C25.1937 27.5526 25.1638 27.3232 25.1014 27.1013L25.084 27.039C25.0067 26.8046 24.887 26.5777 24.7224 26.3633L22.5756 23.5407C22.5357 23.4883 22.5108 23.431 22.5008 23.3736C22.4908 23.3213 22.4983 23.2564 22.5182 23.1916C22.5382 23.1268 22.5681 23.0744 22.6055 23.0345C22.6404 23.0021 22.6828 22.9747 22.7327 22.9522L26.1611 21.9224C26.423 21.8402 26.6499 21.7304 26.8518 21.5858C27.0563 21.4362 27.2358 21.2517 27.3879 21.0323L27.3904 21.0298ZM29.7243 7.20382C24.9194 7.20382 20.5657 9.1537 17.4143 12.3054L17.4093 12.3104C14.2601 15.4621 12.3102 19.8157 12.3102 24.6178C12.3102 29.4226 14.2601 33.7764 17.4118 36.9278L17.4168 36.9328C20.5685 40.082 24.9221 42.0318 29.7242 42.0318C34.5315 42.0318 38.8873 40.082 42.0393 36.9303C45.1913 33.7786 47.1408 29.4249 47.1408 24.6152C47.1408 19.8079 45.191 15.4521 42.0393 12.3001C38.8876 9.1481 34.5339 7.19854 29.7242 7.19854L29.7243 7.20382ZM18.7631 13.6566C21.5657 10.854 25.4431 9.11852 29.7243 9.11852C34.0055 9.11852 37.88 10.854 40.6829 13.6591C43.488 16.4642 45.2235 20.3391 45.2235 24.6203C45.2235 28.9015 43.488 32.7761 40.6829 35.5815C37.8778 38.3866 34.0029 40.122 29.7243 40.122C25.4431 40.122 21.5659 38.3891 18.7656 35.5865C15.9605 32.7814 14.2251 28.9039 14.2251 24.6227C14.2251 20.3415 15.958 16.4644 18.7631 13.6589L18.7631 13.6566ZM12.1405 39.6955C12.1131 39.7304 12.0881 39.7653 12.0682 39.8052L7.26089 48.1334C7.0265 48.5348 6.91928 48.9736 6.93425 49.4125C6.94921 49.8563 7.08884 50.2902 7.34566 50.6717C7.60498 51.0582 7.95655 51.3474 8.36046 51.5269L8.43277 51.5543C8.81427 51.7089 9.23813 51.7613 9.66702 51.7015L17.6083 50.5695C17.723 50.5545 17.8303 50.5745 17.9175 50.6218C18.0073 50.6717 18.0821 50.754 18.1245 50.8587L21.3859 58.6283C21.5654 59.0123 21.8322 59.3265 22.1588 59.5608C22.5129 59.8127 22.9393 59.9648 23.3981 59.9947C23.8544 60.0246 24.2932 59.9249 24.6797 59.7204C25.0662 59.5135 25.3903 59.1993 25.6197 58.8003L29.7289 51.6818L33.8381 58.8003C34.0675 59.1993 34.3941 59.5135 34.7781 59.7204C35.1646 59.9274 35.6035 60.0246 36.0598 59.9947C36.5211 59.9648 36.9449 59.8127 37.299 59.5608C37.6556 59.3065 37.9398 58.9574 38.1168 58.5335L41.3334 50.8609C41.3782 50.7537 41.4506 50.6714 41.5378 50.6216C41.6226 50.5742 41.7323 50.5517 41.847 50.5692L49.7839 51.7012C50.2451 51.766 50.694 51.7012 51.0929 51.5267C51.4669 51.3596 51.7911 51.0978 52.0454 50.7537L52.1078 50.6714C52.3646 50.2899 52.5042 49.8561 52.5192 49.4173C52.5341 48.9759 52.4269 48.5371 52.195 48.1356L47.3852 39.8101C47.3627 39.7702 47.3378 39.7353 47.3104 39.7003L47.6644 38.9C47.814 38.5633 47.9761 38.2766 48.1606 38.0223C48.3601 37.753 48.5845 37.5086 48.8438 37.2767L51.2251 35.1423C52.1426 34.3219 52.7909 33.3271 53.145 32.2374C53.4991 31.1453 53.5614 29.9609 53.3021 28.7591L52.6288 25.6349C52.554 25.2908 52.5166 24.9567 52.5166 24.6251C52.5166 24.2934 52.554 23.9618 52.6288 23.6177L53.3021 20.4935C53.5589 19.2941 53.4991 18.1072 53.145 17.0151C52.7909 15.9255 52.1426 14.9307 51.2251 14.1078L48.8438 11.9759C48.5845 11.7441 48.3601 11.4972 48.1656 11.2279L48.1232 11.173C47.9562 10.9337 47.8041 10.6619 47.6669 10.3502L46.3753 7.4279C45.8792 6.30338 45.1311 5.37832 44.2011 4.7026C43.2736 4.02937 42.164 3.60546 40.9397 3.48079L37.7605 3.15665C37.409 3.11925 37.0823 3.05442 36.7681 2.95219C36.4565 2.84996 36.1523 2.71282 35.8456 2.53329L33.0829 0.92754C32.0207 0.30917 30.8712 0 29.7267 0C28.5797 0 27.4327 0.309189 26.3706 0.92754L23.6079 2.53329C23.3012 2.71033 22.997 2.84996 22.6853 2.95219C22.3736 3.05442 22.047 3.11925 21.6954 3.15665L18.5163 3.48079C17.292 3.60546 16.1824 4.02935 15.2548 4.7026C14.3248 5.37832 13.5768 6.30338 13.0806 7.4279L12.931 7.76701C12.719 8.25073 12.9385 8.81423 13.4222 9.02871C13.9059 9.24065 14.4694 9.02123 14.6839 8.5375L14.8335 8.1984C15.1901 7.39054 15.7211 6.72726 16.3794 6.25101C17.0402 5.77228 17.8356 5.46805 18.7133 5.3783L21.8924 5.05416C22.3861 5.00429 22.8424 4.90954 23.2788 4.76742C23.7151 4.62529 24.139 4.43329 24.5679 4.18395L27.3306 2.5782C28.0935 2.13437 28.9139 1.91243 29.7292 1.91243C30.5446 1.91243 31.3649 2.13435 32.1279 2.5782L34.8906 4.18395C35.3195 4.43329 35.7433 4.62529 36.1797 4.76742C36.6185 4.90954 37.0748 5.0018 37.5686 5.05416L40.7477 5.3783C41.6254 5.46806 42.4208 5.77227 43.0815 6.25101C43.7373 6.72726 44.2709 7.39054 44.6275 8.1984L45.919 11.1207C46.1035 11.5371 46.3205 11.9211 46.5773 12.2851L46.6221 12.3524C46.8914 12.7215 47.2056 13.0656 47.5796 13.3997L49.9609 15.5315C50.6166 16.12 51.0829 16.8306 51.3347 17.606C51.5866 18.379 51.6265 19.2293 51.4419 20.0945L50.7687 23.2187C50.664 23.7049 50.6116 24.1662 50.6116 24.6225C50.6116 25.0813 50.664 25.5426 50.7687 26.0288L51.4419 29.153C51.629 30.0183 51.5866 30.8685 51.3347 31.6415C51.0829 32.4169 50.6191 33.1275 49.9634 33.716L47.5821 35.8504C47.2081 36.1845 46.8939 36.5286 46.6246 36.8976C46.3479 37.2816 46.1185 37.6856 45.924 38.1269L44.6324 41.0492C44.2758 41.857 43.7447 42.5203 43.0864 42.9966C42.4332 43.4703 41.6452 43.7745 40.7775 43.8643L37.5735 44.1934C37.0798 44.2433 36.6235 44.338 36.1846 44.4802C35.7483 44.6223 35.3244 44.8143 34.8955 45.0636L32.1328 46.6694C31.3698 47.1132 30.5495 47.3351 29.7342 47.3351C28.9188 47.3351 28.0985 47.1132 27.3355 46.6694L24.5728 45.0636C24.1439 44.8143 23.72 44.6223 23.2837 44.4802C22.8449 44.338 22.3886 44.2458 21.8948 44.1934L18.7157 43.8668C17.838 43.777 17.0426 43.4753 16.3844 42.9966C15.7261 42.5203 15.195 41.857 14.8384 41.0492L13.5468 38.1244C13.3623 37.7055 13.1454 37.324 12.8886 36.96L12.8437 36.8927C12.5719 36.5162 12.2578 36.1746 11.8912 35.8454L9.5075 33.711C8.85175 33.1226 8.38546 32.4119 8.13364 31.6365C7.8843 30.8636 7.84191 30.0157 8.02892 29.1506L8.70216 26.0213C8.80688 25.5351 8.85924 25.0738 8.85924 24.6151C8.85924 24.1563 8.80688 23.695 8.70216 23.2113L8.02892 20.082C7.84191 19.2168 7.8843 18.369 8.13364 17.5961C8.38548 16.8207 8.85175 16.1076 9.5075 15.5216L10.4251 14.6987C10.8165 14.3471 10.8515 13.7437 10.4999 13.3522C10.1483 12.9608 9.5449 12.9259 9.15341 13.2774L8.23583 14.1003C7.31825 14.9207 6.66997 15.9156 6.3159 17.0077C5.96183 18.0997 5.8995 19.2866 6.15881 20.4885L6.83205 23.6077C6.90685 23.9543 6.94425 24.2859 6.94425 24.6151C6.94425 24.9467 6.90685 25.2759 6.83205 25.6249L6.1613 28.7466C5.90199 29.9485 5.96183 31.1329 6.31839 32.2275C6.67246 33.3171 7.32074 34.312 8.23832 35.1323L10.6171 37.2642C10.8814 37.5035 11.1083 37.7504 11.2978 38.0122L11.3427 38.0671C11.5097 38.3064 11.6618 38.5782 11.799 38.8899L12.153 39.6903L12.1405 39.6955ZM46.3576 41.8449L50.5391 49.0859C50.5864 49.1732 50.6114 49.263 50.6089 49.3477C50.6064 49.4275 50.574 49.5173 50.5191 49.6021L50.4942 49.6395C50.4443 49.6993 50.3845 49.7492 50.3196 49.7766C50.2398 49.809 50.1476 49.8215 50.0503 49.809L42.1135 48.6745C41.5724 48.5973 41.0413 48.7045 40.5925 48.9588C40.1412 49.2156 39.7772 49.6145 39.5652 50.1158L36.3486 57.7883C36.3112 57.8806 36.2539 57.9554 36.1891 58.0003C36.1217 58.0477 36.037 58.0776 35.9397 58.0826C35.835 58.0876 35.7427 58.0701 35.6704 58.0327C35.5981 57.9953 35.5333 57.928 35.4859 57.8457L30.5564 49.3107L30.5489 49.2958L30.5439 49.2908L30.5339 49.2758L30.5314 49.2708L30.5215 49.2534L30.519 49.2509L30.5065 49.2334L30.504 49.2309L30.4915 49.211L30.4816 49.1985C31.3692 49.0913 32.2469 48.7971 33.0747 48.3159L35.8375 46.7101C36.1441 46.5331 36.4483 46.3934 36.76 46.2912C37.0717 46.189 37.3983 46.1242 37.7524 46.0868L40.9614 45.7576C42.1732 45.6305 43.2728 45.2066 44.1929 44.5383C45.1155 43.8676 45.8585 42.9525 46.3547 41.8404L46.3576 41.8449ZM28.9608 49.2002L28.9509 49.2127L28.9384 49.2326L28.9359 49.2351L28.9234 49.2526L28.9209 49.2551L28.911 49.2725L28.9085 49.2775L28.8985 49.2925L28.8935 49.2974L28.886 49.3124L23.959 57.8474C23.9116 57.9296 23.8468 57.997 23.7745 58.0344C23.7022 58.0718 23.6099 58.0917 23.5102 58.0842C23.4104 58.0792 23.3256 58.0493 23.2583 58.0019C23.201 57.9621 23.1511 57.9047 23.1162 57.8349L19.8822 50.1202C19.6653 49.6165 19.3012 49.215 18.8549 48.9632C18.4061 48.7089 17.875 48.6017 17.3339 48.679L9.39707 49.811C9.3098 49.8234 9.23001 49.8159 9.1602 49.791L9.12778 49.7761C9.05298 49.7436 8.98317 49.6838 8.92831 49.6015C8.87096 49.5167 8.84104 49.427 8.83855 49.3472C8.83606 49.2624 8.86099 49.1726 8.90837 49.0904L13.0874 41.8467C13.5836 42.9588 14.3266 43.8714 15.2492 44.5446C16.1742 45.2179 17.2838 45.6418 18.5081 45.7664L21.6872 46.0931C22.0388 46.1305 22.3655 46.1953 22.6796 46.2975C22.9913 46.3998 23.2955 46.5369 23.6022 46.7164L26.3649 48.3222C27.1927 48.8034 28.0704 49.0976 28.9581 49.2049L28.9608 49.2002Z" fill="#007BFC"/>
</g>
</svg>
