<svg width="60" height="60" viewBox="0 0 60 60" fill="none" xmlns="http://www.w3.org/2000/svg">
<g id="Frame 38373">
<path id="Vector" d="M15.4735 46.6611C15.3192 46.5093 15.2296 46.3002 15.2271 46.0836C15.2271 45.8671 15.3117 45.6555 15.4636 45.5012C15.7822 45.1776 16.2999 45.1726 16.6235 45.4912L24.2777 52.9861C24.4917 53.1952 24.7531 53.357 25.0368 53.454C25.0866 53.4715 25.1389 53.4864 25.1937 53.5013C25.3803 53.5486 25.572 53.5735 25.7637 53.571C25.8259 53.571 25.8906 53.5636 25.9528 53.5586C26.1744 53.5337 26.3909 53.474 26.595 53.3844C26.834 53.2798 27.0505 53.128 27.2322 52.9413L27.2422 52.9338C28.0412 52.0975 28.0213 50.7708 27.1949 49.9593L19.0755 41.977C18.5404 41.4319 17.8036 41.1307 17.0395 41.1506H9.33812V52.6057H10.6922C11.8994 52.5958 13.0619 53.0762 13.9106 53.9374L17.4725 57.5018C17.7388 57.7731 18.0575 57.9897 18.4059 58.1415C18.7618 58.2859 19.1426 58.3581 19.526 58.3531H45.6867C46.6227 58.3531 47.3818 57.5939 47.3818 56.6555C47.3818 55.7196 46.6227 54.9604 45.6867 54.9604H27.0782C26.8592 55.045 26.6302 55.1097 26.3987 55.1545C25.8561 55.2541 25.2985 55.2317 24.7634 55.0873C24.6738 55.0649 24.5841 55.0375 24.4945 55.0077C24.3975 54.9753 24.3004 54.9405 24.2033 54.8932L24.1635 54.8733L24.166 54.8757C23.7827 54.699 23.4317 54.4576 23.1305 54.1614C20.5717 51.6673 18.0201 49.1655 15.4735 46.6611ZM47.0729 43.9007C46.7592 43.5721 46.7717 43.0519 47.1027 42.7383C47.4313 42.4247 47.9515 42.4396 48.2627 42.7682L49.6292 44.2019L52.4618 41.6729C52.6236 41.5211 52.8376 41.4389 53.0591 41.4489C53.2807 41.4589 53.4873 41.5559 53.6366 41.7202C53.7835 41.8845 53.8582 42.1035 53.8432 42.3226C53.8283 42.5441 53.7237 42.7482 53.557 42.8926L50.1668 45.9243L50.1544 45.9367H50.1519C49.9926 46.0886 49.7835 46.1682 49.5644 46.1633C49.3479 46.1583 49.1413 46.0662 48.9919 45.9069L47.0729 43.9007ZM50.3386 36.8589C53.6565 36.8589 56.5141 39.2011 57.1612 42.4569C57.8084 45.7127 56.066 48.9711 52.9995 50.2404C49.9329 51.5099 46.396 50.4371 44.5538 47.6792C42.7094 44.9188 43.0728 41.242 45.4201 38.8952C46.7219 37.5909 48.4916 36.8564 50.3386 36.8589ZM54.0946 40.0623C52.3025 38.2751 49.4998 38.0013 47.3963 39.4077C45.2929 40.8165 44.4766 43.5122 45.4448 45.8493C46.4155 48.1866 48.8997 49.5132 51.3813 49.0204C53.8629 48.5276 55.6501 46.3496 55.6501 43.8182C55.6551 42.4094 55.0928 41.0555 54.0946 40.0623ZM32.3173 8.21439C28.6931 8.42597 25.2882 10.0165 22.7967 12.655C20.3051 15.2959 18.9187 18.7882 18.9162 22.4171V22.6137H21.709V22.6162C22.0998 20.7693 23.7301 19.4475 25.6193 19.4475C27.5061 19.4475 29.1364 20.7693 29.5272 22.6162H32.3175L32.32 18.5739C32.32 18.1184 32.6884 17.7499 33.1439 17.7499C34.4408 17.7499 35.4912 16.6996 35.4912 15.4027C35.4912 14.1059 34.4408 13.053 33.1439 13.053C32.9249 13.0555 32.7158 12.9684 32.559 12.814C32.4047 12.6597 32.3175 12.4481 32.32 12.2316L32.3173 8.21439ZM17.3007 23.4425C17.2908 23.3081 17.2833 23.1413 17.2783 22.9546C17.2709 22.7256 17.2684 22.5439 17.2684 22.417V22.4195C17.2659 18.2079 18.9386 14.1708 21.9156 11.1937C24.8926 8.21665 28.93 6.54403 33.1413 6.54403C33.5943 6.54652 33.9628 6.9149 33.9652 7.36794V11.4924C35.8121 11.8857 37.1314 13.5161 37.1314 15.4028C37.1314 17.292 35.8122 18.9224 33.9652 19.3132V22.6138H37.4923V22.6162C37.7114 22.6138 37.9205 22.7009 38.0748 22.8552C38.2291 23.0095 38.3162 23.2211 38.3162 23.4376C38.3162 24.7345 39.3666 25.7874 40.6635 25.7874C41.9603 25.7874 43.0107 24.7345 43.0107 23.4376C43.0107 22.9846 43.3791 22.6162 43.8346 22.6162H48.1582C48.3748 22.6162 48.5864 22.7008 48.7407 22.8552C48.895 23.012 48.9821 23.2211 48.9821 23.4376C48.9821 23.475 48.9821 23.5048 48.9747 23.5446C48.5739 29.1252 45.2684 34.086 40.2703 36.5998C39.7028 36.8687 39.3469 37.4486 39.3643 38.0759V39.5146C39.3269 42.9272 36.5491 45.6727 33.1366 45.6702C29.724 45.6677 26.9487 42.9197 26.9138 39.5071V38.0734C26.9213 37.7672 26.8391 37.4661 26.6823 37.2022C26.518 36.9433 26.2865 36.7342 26.0102 36.5998C21.0096 34.0858 17.7042 29.1273 17.3085 23.5446C17.306 23.5123 17.3007 23.4773 17.3007 23.4425ZM19.0306 24.2614C19.3094 26.4145 20.0785 28.4755 21.2783 30.2826C22.6522 32.3461 24.5365 34.0187 26.7518 35.1363C27.8694 35.6864 28.5714 36.8289 28.5614 38.0735V38.6808H32.3174L32.3199 35.3803C30.809 35.0617 29.6192 33.9042 29.2583 32.4058V32.3933L29.2508 32.3659L29.2409 32.3485L29.2384 32.3361L29.2334 32.3062V32.2938L29.2259 32.2664V32.2365L29.2234 32.2241L29.2209 32.2066V32.1942L29.2184 32.1668V32.1494L29.211 32.122V32.0921L29.2085 32.0797L29.206 32.0648L29.2035 32.0523V32.0249L29.201 31.9926L29.1985 31.9801V31.9503L29.196 31.9304V31.8831L29.1936 31.8432V31.8358H29.1911V31.7835L29.1886 31.7437V31.7362L29.1861 31.6939V31.2782L29.1886 31.2359V31.2284L29.1911 31.1886V31.1363H29.1936V31.1289L29.196 31.089V31.0442L29.1985 31.0243V30.992L29.201 30.9795L29.2035 30.9472V30.9198L29.206 30.9073L29.2085 30.8899V30.88L29.216 30.8476L29.2184 30.8277V30.8028L29.2209 30.7754V30.758L29.2259 30.7331V30.7032L29.2334 30.6758V30.6634L29.2384 30.6335L29.2433 30.6086V30.5912L29.2458 30.5788V30.5663L29.2508 30.5539C29.6142 29.0529 30.804 27.8955 32.3124 27.5744V24.2614H28.7853C28.3298 24.2614 27.9614 23.893 27.9614 23.4375C27.9614 22.1432 26.911 21.0903 25.6142 21.0903C24.3173 21.0903 23.2669 22.1431 23.2669 23.4375C23.2669 23.6565 23.1798 23.8656 23.0255 24.0199C22.8712 24.1768 22.6621 24.2614 22.443 24.2614L19.0306 24.2614ZM36.3749 42.7456C37.0346 42.0885 37.4776 41.2471 37.6419 40.3312H28.6362C28.9423 42.0038 30.152 43.3703 31.7749 43.8781C33.4003 44.3859 35.1726 43.9478 36.3749 42.7456ZM39.4241 0.0027056C43.6332 0.0027056 47.6703 1.67539 50.6473 4.65238C53.6243 7.62688 55.297 11.6668 55.297 15.8756C55.297 16 55.297 16.1793 55.2845 16.4132C55.2771 16.6223 55.2721 16.7991 55.2621 16.9509L55.2596 16.9484C55.2298 17.379 54.8713 17.715 54.4382 17.715H50.8589C50.4681 19.5644 48.8377 20.8862 46.9485 20.8862C45.0593 20.8862 43.4289 19.5645 43.0381 17.715H39.4239C39.2049 17.7175 38.9958 17.6304 38.839 17.4761C38.6846 17.3193 38.6 17.1102 38.6 16.8911V12.0299C38.6 11.5769 38.9684 11.206 39.4239 11.206C40.7208 11.206 41.7712 10.1556 41.7712 8.85876C41.7712 7.5619 40.7208 6.51152 39.4239 6.51152C38.9684 6.51152 38.6 6.14314 38.6 5.68761V0.823896C38.6 0.604854 38.6846 0.395766 38.839 0.241446C38.9958 0.0846344 39.2049 0 39.4239 0L39.4241 0.0027056ZM49.4799 5.81478C47.0157 3.34558 43.7301 1.87203 40.248 1.6729V4.95104C42.0949 5.34183 43.4167 6.97221 43.4167 8.86142C43.4167 10.7481 42.095 12.3785 40.248 12.7693V16.0674H43.7751C43.9942 16.0674 44.2032 16.1545 44.3576 16.3088C44.5119 16.4632 44.599 16.6747 44.599 16.8913C44.599 18.1881 45.6494 19.241 46.9462 19.241C48.2431 19.241 49.2935 18.1881 49.2935 16.8913C49.296 16.4383 49.6644 16.0699 50.1174 16.0674H53.6495V15.8757C53.6544 12.0997 52.1532 8.48087 49.4799 5.81478ZM44.9996 30.2824C46.2018 28.4754 46.971 26.4144 47.2497 24.2613H44.5764C44.1856 26.1107 42.5552 27.4349 40.666 27.4349C38.7768 27.4349 37.1464 26.1107 36.7556 24.2613H33.9654V28.3011C33.9629 28.7541 33.5945 29.1225 33.1414 29.125C31.8446 29.125 30.7917 30.1754 30.7917 31.4722C30.7917 32.7691 31.8446 33.8195 33.1414 33.8195C33.5945 33.8195 33.9629 34.1879 33.9654 34.6434V38.6807H37.7164V38.0734C37.709 36.8288 38.4109 35.6888 39.526 35.1362C41.7388 34.0186 43.6231 32.3459 44.997 30.2824L44.9996 30.2824ZM7.69018 54.3895V39.5915C7.68271 39.5641 7.66031 39.5417 7.63293 39.5367H3.70509C3.69015 39.5367 3.67522 39.5442 3.66526 39.5566C3.65531 39.5666 3.64784 39.579 3.64784 39.5915V54.3895C3.64784 54.4019 3.65531 54.4168 3.66526 54.4268C3.67522 54.4392 3.69015 54.4442 3.70509 54.4442H7.63293C7.64786 54.4442 7.66031 54.4392 7.67026 54.4268C7.68271 54.4193 7.69018 54.4044 7.69018 54.3895ZM9.33794 54.255V54.3895C9.33545 55.3279 8.5738 56.0895 7.63289 56.092H3.70505C2.76414 56.0895 2.00249 55.3279 2 54.3895V39.5915C2.00249 38.6531 2.76414 37.8914 3.70505 37.8889H7.63289C8.53646 37.8914 9.28314 38.5958 9.33297 39.4993H17.0394C18.2342 39.4894 19.3817 39.9623 20.228 40.8061L27.8248 48.2762H35.616C36.8157 48.2762 37.9209 48.9183 38.5158 49.9588C39.1107 51.0017 39.1032 52.2811 38.4934 53.3141H45.6869C47.5338 53.3141 49.0298 54.8101 49.0298 56.657C49.0298 58.5039 47.5338 59.9998 45.6869 59.9998H19.5262C18.3165 60.0098 17.1565 59.5294 16.3077 58.6657L12.7458 55.1063C12.2132 54.5437 11.4664 54.2351 10.6923 54.255L9.33794 54.255ZM35.6153 53.3166V53.3141C36.5512 53.3141 37.3104 52.555 37.3104 51.619C37.3104 50.6831 36.5512 49.9239 35.6153 49.9239H29.1387C29.3502 50.3968 29.4622 50.9071 29.4697 51.4249C29.4797 52.087 29.3129 52.7391 28.9893 53.3141L35.6153 53.3166Z" fill="#007BFC"/>
</g>
</svg>
