<svg width="60" height="60" viewBox="0 0 60 60" fill="none" xmlns="http://www.w3.org/2000/svg">
<g id="Frame 38368">
<path id="Vector" d="M35.6995 46.994H34.2384L34.9572 45.4626C35.4182 44.5172 35.1603 43.4624 34.3504 42.9598C33.5925 42.4779 32.595 42.6576 31.8579 43.4207L30.04 45.3532C29.6442 45.3636 29.2874 45.46 28.9774 45.6319L27.6544 46.296V46.2673C27.6544 45.8637 27.3288 45.5381 26.9278 45.5381H23.3962C22.9951 45.5381 22.6696 45.8636 22.6696 46.2673V54.7241C22.6696 55.1252 22.9951 55.4507 23.3962 55.4507H26.9278C27.3288 55.4507 27.6544 55.1252 27.6544 54.7241V54.6824L29.6467 55.7685C29.7535 55.8258 29.8733 55.857 29.9931 55.857H33.9544C35.5405 55.857 36.8297 54.5678 36.8297 52.9818V48.1272C36.8297 47.5021 36.3219 46.994 35.6995 46.994ZM26.1986 53.9973H24.1229V46.994H26.1986V53.9973ZM35.3741 52.9816C35.3741 53.7656 34.7386 54.401 33.9547 54.401H30.1783L27.652 53.0259V47.9291L29.6548 46.9212C29.7954 46.8457 29.9282 46.8118 30.1079 46.8118H30.3528C30.5533 46.8118 30.746 46.7285 30.8841 46.5826L32.9077 44.4288C33.0562 44.2777 33.3583 44.0563 33.5718 44.1944C33.8062 44.3402 33.7229 44.6736 33.6422 44.8376L32.6421 46.968C32.4676 47.3587 32.504 47.7624 32.7697 48.1113C33.0275 48.4135 33.4208 48.5385 33.7906 48.4525H35.3741L35.3741 52.9816ZM26.4253 7.00069L25.9747 9.99836C25.9356 10.2666 26.0476 10.5349 26.2664 10.6938C26.4852 10.8526 26.7743 10.8787 27.0191 10.7589L29.7485 9.40721L32.4806 10.7589C32.5822 10.8084 32.6915 10.8344 32.8035 10.8344C32.9546 10.8344 33.1056 10.7875 33.2333 10.6938C33.452 10.5349 33.564 10.2666 33.525 9.99836L33.0744 7.00068L35.1996 4.82342C35.3871 4.63069 35.4548 4.34681 35.3715 4.08895C35.2881 3.83111 35.0694 3.64359 34.8037 3.59671L31.8138 3.08104L30.3944 0.388056C30.2668 0.151054 30.0194 0 29.7486 0C29.4803 0 29.2303 0.151054 29.1053 0.388056L27.6859 3.08104L24.696 3.59671C24.4303 3.64359 24.2116 3.83372 24.1282 4.08895C24.0449 4.34678 24.1126 4.62806 24.3001 4.82342L26.4253 7.00069ZM28.2874 4.45618C28.5114 4.41712 28.7015 4.27648 28.8083 4.07854L29.7486 2.29191L30.6888 4.07854C30.7929 4.27908 30.9857 4.41711 31.2097 4.45618L33.189 4.79736L31.78 6.24023C31.6212 6.4043 31.5456 6.63089 31.5795 6.85747L31.8764 8.83419L30.0716 7.94091C29.97 7.89142 29.8606 7.86538 29.7486 7.86538C29.6392 7.86538 29.5272 7.89142 29.4257 7.94091L27.6208 8.83419L27.9177 6.85747C27.9516 6.63089 27.8761 6.4043 27.7198 6.24023L26.3082 4.79736L28.2874 4.45618ZM11.9786 10.4437L11.6114 12.9414C11.5723 13.2096 11.6843 13.4779 11.9031 13.6342C12.0307 13.7253 12.1791 13.7722 12.3302 13.7722C12.4396 13.7722 12.5516 13.7462 12.6531 13.6967L14.9086 12.5742L17.177 13.6967C17.4192 13.8165 17.7083 13.793 17.927 13.6342C18.1458 13.4753 18.2578 13.207 18.2187 12.9414L17.8541 10.4437L19.6199 8.62584C19.8074 8.4305 19.8751 8.14923 19.7892 7.89137C19.7032 7.63353 19.4844 7.44341 19.2188 7.39914L16.7238 6.98243L15.5518 4.74002C15.4268 4.50041 15.1768 4.34936 14.9059 4.34936C14.635 4.34936 14.3876 4.50041 14.26 4.74002L13.088 6.98503L10.606 7.39913C10.3403 7.4434 10.119 7.63352 10.0356 7.88876C9.95229 8.1466 10.0174 8.42787 10.2075 8.62323L11.9786 10.4437ZM13.6897 8.36021C13.9137 8.32375 14.109 8.18051 14.2132 7.97997L14.9086 6.65171L15.604 7.98257C15.7108 8.18311 15.9035 8.32635 16.1301 8.36281L17.612 8.61023L16.565 9.68846C16.4088 9.84994 16.3332 10.0765 16.3671 10.3005L16.5833 11.7824L15.2342 11.1131C15.1326 11.0636 15.0207 11.0376 14.9113 11.0376C14.7993 11.0376 14.6899 11.0636 14.5883 11.1131L13.2549 11.7772L13.471 10.3006C13.5049 10.0766 13.4294 9.85 13.2731 9.68852L12.2235 8.60769L13.6897 8.36021ZM41.6403 10.4437L41.2731 12.9414C41.234 13.2096 41.346 13.4779 41.5648 13.6342C41.6924 13.7253 41.8408 13.7722 41.9919 13.7722C42.1013 13.7722 42.2133 13.7462 42.3148 13.6967L44.5702 12.5742L46.8386 13.6967C47.0809 13.8165 47.37 13.793 47.5887 13.6342C47.8075 13.4753 47.9195 13.207 47.8804 12.9414L47.5158 10.4437L49.2816 8.62584C49.4691 8.4305 49.5368 8.14923 49.4509 7.89137C49.3675 7.63353 49.1461 7.44341 48.8805 7.39914L46.3855 6.98243L45.2135 4.74002C45.0885 4.50041 44.8411 4.34936 44.5676 4.34936C44.2967 4.34936 44.0493 4.50041 43.9217 4.74002L42.7497 6.98503L40.2677 7.39913C40.002 7.4434 39.7807 7.63352 39.6973 7.88876C39.614 8.1466 39.6791 8.42787 39.8666 8.62323L41.6403 10.4437ZM43.354 8.36021C43.578 8.32375 43.7733 8.18051 43.8775 7.97997L44.5729 6.64911L45.2683 7.97737C45.3724 8.18052 45.5678 8.32115 45.7918 8.35761L47.2737 8.60503L46.2267 9.68326C46.0705 9.84474 45.9949 10.0713 46.0288 10.2953L46.245 11.7772L44.8959 11.1079C44.7943 11.0584 44.6849 11.0324 44.5729 11.0324C44.4636 11.0324 44.3516 11.0584 44.25 11.1079L42.9165 11.772L43.1327 10.2954C43.1666 10.0714 43.0936 9.8448 42.9348 9.68332L41.8852 8.60509L43.354 8.36021ZM29.7487 31.349C34.9003 31.349 39.0909 27.1507 39.0909 21.9915C39.0909 16.8399 34.9004 12.6466 29.7487 12.6466C24.597 12.6466 20.4065 16.8371 20.4065 21.9915C20.4065 27.1534 24.597 31.349 29.7487 31.349ZM29.7487 14.1054C34.0981 14.1054 37.6348 17.6448 37.6348 21.9941C37.6348 26.3514 34.0954 29.8962 29.7487 29.8962C25.3994 29.8962 21.8627 26.3516 21.8627 21.9941C21.8627 17.6422 25.3995 14.1054 29.7487 14.1054ZM47.417 41.4593C46.3935 36.7922 42.4947 33.3259 37.4861 32.6251C37.309 32.6017 37.1293 32.6408 36.9809 32.7423C34.827 34.1878 32.3268 34.9509 29.7508 34.9509C27.1621 34.9509 24.6618 34.1878 22.5208 32.7423C22.3724 32.6408 22.1927 32.5991 22.013 32.6225C17.0047 33.3231 13.1062 36.7896 12.0821 41.454L10.2382 49.8088C10.048 50.6683 10.2616 51.4886 10.8632 52.1918C11.457 52.8611 12.2513 53.2154 13.1655 53.2154H20.0935C21.5285 57.1663 25.3075 60 29.7477 60C34.1879 60 37.9671 57.1638 39.4019 53.2154H46.3299C47.2415 53.2154 48.0384 52.8612 48.64 52.1814C49.2208 51.5043 49.4343 50.6891 49.2598 49.8062L47.417 41.4593ZM29.7487 58.5495C24.8837 58.5495 20.9252 54.5908 20.9252 49.7261C20.9252 44.8532 24.8839 40.8892 29.7487 40.8892C34.6135 40.8892 38.5722 44.8531 38.5722 49.7261C38.5722 54.5911 34.6135 58.5495 29.7487 58.5495ZM47.5444 51.2309C47.2318 51.5825 46.823 51.7648 46.3307 51.7648H39.8223C39.9551 51.1059 40.0255 50.4235 40.0255 49.7255C40.0255 44.0505 35.413 39.4305 29.7458 39.4305C24.0787 39.4305 19.4662 44.0508 19.4662 49.7255C19.4662 50.4235 19.5365 51.1058 19.672 51.7648H13.1636C12.6713 51.7648 12.2624 51.5851 11.9577 51.2413C11.6634 50.8975 11.5645 50.5329 11.6556 50.1292L13.4995 41.7717C14.3746 37.7896 17.6744 34.8051 21.9403 34.107C24.2687 35.6124 26.959 36.4067 29.743 36.4067C32.5141 36.4067 35.2045 35.6124 37.5457 34.107C41.8143 34.805 45.1145 37.787 45.9892 41.7717L47.8305 50.1138C47.9217 50.5358 47.823 50.9053 47.5444 51.2309Z" fill="#007BFC"/>
</g>
</svg>
