<svg width="286" height="28" viewBox="0 0 286 28" fill="none" xmlns="http://www.w3.org/2000/svg">
<path d="M72.1257 24.4391C70.1724 22.6668 69.3383 22.3595 67.0174 22.3595H60.1093V27.6929H55.3411V8.80127H72.1532C75.3575 8.80127 77.3658 9.42678 78.6936 10.6504C79.8953 11.7697 80.4659 13.4597 80.4659 15.5667C80.4659 17.6737 79.8953 19.3637 78.6936 20.483C77.7828 21.3445 76.5317 21.8877 74.8088 22.151C75.9831 22.5955 76.7896 23.2155 77.9858 24.3129L81.6895 27.6984H75.7197L72.1257 24.4446V24.4391ZM71.6813 18.6119C73.4261 18.6119 74.3644 18.4034 74.9405 17.8054C75.4069 17.3115 75.6154 16.5818 75.6154 15.5667C75.6154 14.5516 75.4069 13.8493 74.9405 13.3554C74.3699 12.7574 73.4316 12.5489 71.6813 12.5489H60.1093V18.6119H71.6813Z" fill="white"/>
<path d="M107.753 27.6875H85.4921V8.7959H107.67V12.5435H90.2603V16.2143H101.991V19.8027H90.2603V23.9399H107.747V27.6875H107.753Z" fill="white"/>
<path d="M131.522 24.2527H117.135L114.869 27.6875H109.58L122.43 8.7959H126.315L139.242 27.6875H133.849L131.528 24.2527H131.522ZM119.637 20.4776H128.993L124.274 13.4763L119.632 20.4776H119.637Z" fill="white"/>
<path d="M163.374 27.6875H141.898V8.7959H146.666V23.9399H163.374V27.6875Z" fill="white"/>
<path d="M188.729 12.4667H172.828C171.522 12.4667 170.562 12.5709 170.062 13.0373C169.799 13.2733 169.673 13.6354 169.673 14.0798C169.673 15.1717 170.562 15.5613 172.202 15.693L182.6 16.4996C185.936 16.7575 187.862 17.2019 189.119 18.453C189.925 19.2595 190.447 20.4063 190.447 22.0414C190.447 23.6765 189.953 24.9276 189.036 25.8164C187.709 27.1443 185.651 27.693 182.183 27.693H166.26V24.0222H182.836C184.949 24.0222 185.832 23.4516 185.832 22.2499C185.832 21.1855 185.206 20.7684 183.302 20.6093L173.656 19.8796C170.891 19.6711 168.394 19.3089 166.776 17.9043C165.838 17.0977 165.135 15.7973 165.135 14.1567C165.135 12.5161 165.733 11.3748 166.644 10.5133C167.972 9.28973 170.189 8.7959 173.163 8.7959H188.724V12.4667H188.729Z" fill="white"/>
<path d="M210.129 8.48853C215.369 8.48853 218.831 9.26768 220.894 11.3747C222.403 12.9385 223.16 15.3033 223.16 18.2443C223.16 21.1854 222.403 23.5502 220.894 25.114C218.836 27.221 215.369 28.0002 210.079 28.0002H206.353C201.113 28.0002 197.646 27.221 195.588 25.114C194.079 23.5557 193.322 21.1854 193.322 18.2443C193.322 15.3033 194.079 12.9385 195.588 11.3747C197.646 9.26768 201.113 8.48853 206.353 8.48853H210.134H210.129ZM209.684 23.8685C213.229 23.8685 215.264 23.6325 216.537 22.6449C217.657 21.7615 218.156 20.3294 218.156 18.2498C218.156 16.1703 217.662 14.7382 216.537 13.8548C215.259 12.8671 213.229 12.6312 209.657 12.6312H206.814C203.242 12.6312 201.212 12.8671 199.934 13.8548C198.814 14.7382 198.315 16.1703 198.315 18.2498C198.315 20.3294 198.809 21.7615 199.934 22.6449C201.212 23.6325 203.242 23.8685 206.787 23.8685H209.679H209.684Z" fill="white"/>
<path d="M231.84 27.6875H227.072V8.7959H248.992V12.5435H231.84V16.2143H243.308V19.8027H231.84V27.6875Z" fill="white"/>
<path d="M250.188 8.7959H275.181V12.5435H265.069V27.6875H260.301V12.5435H250.188V8.7959Z" fill="white"/>
<path d="M285.025 4.27434C285.025 6.69409 283.127 8.59806 280.652 8.59806C278.177 8.59806 276.251 6.69409 276.251 4.27434C276.251 1.85459 278.205 0 280.652 0C283.099 0 285.025 1.89849 285.025 4.27434ZM277.343 4.27434C277.343 6.17283 278.748 7.68723 280.679 7.68723C282.611 7.68723 283.933 6.17832 283.933 4.30178C283.933 2.42524 282.55 0.861453 280.652 0.861453C278.753 0.861453 277.343 2.3978 277.343 4.27434ZM279.972 6.51302H278.984V2.23868C279.373 2.16186 279.922 2.10699 280.625 2.10699C281.431 2.10699 281.799 2.23868 282.111 2.41975C282.347 2.60082 282.528 2.94101 282.528 3.35802C282.528 3.82441 282.161 4.19203 281.645 4.34567V4.40054C282.062 4.55418 282.298 4.86693 282.424 5.44306C282.556 6.09601 282.633 6.3539 282.737 6.51302H281.667C281.535 6.3539 281.459 5.96432 281.327 5.4705C281.25 5.0041 280.987 4.7956 280.443 4.7956H279.977V6.51302H279.972ZM279.999 4.08778H280.465C281.014 4.08778 281.453 3.90671 281.453 3.46227C281.453 3.07269 281.168 2.80932 280.542 2.80932C280.279 2.80932 280.098 2.83676 279.994 2.86419V4.08778H279.999Z" fill="white"/>
<path d="M24.6639 27.7041H22.3155L12.3347 15.3529L2.35391 27.7041H0L11.1605 13.9044L12.3347 12.4503L13.5089 13.9044L24.6639 27.7041Z" fill="#007BFC"/>
<path d="M35.9614 27.6709L35.9229 27.7038H33.6349L20.3949 11.3252L16.8393 15.7258L15.6651 14.2717L19.2206 9.87116L20.3949 8.42261L21.5691 9.87116L35.9614 27.6709Z" fill="#007BFC"/>
<path d="M46.6609 27.7038H44.318L28.126 7.6819L24.8613 11.7258L23.687 10.2772L26.9573 6.22785L28.126 4.7793L29.3002 6.23334L46.6609 27.7038Z" fill="#007BFC"/>
</svg>
