<svg width="42" height="42" viewBox="0 0 42 42" fill="none" xmlns="http://www.w3.org/2000/svg">
<rect width="42" height="42" rx="8" fill="#193B70"/>
<g clip-path="url(#clip0_1054_445)">
<path d="M13.6666 17.3333C13.6666 16.3608 14.0529 15.4282 14.7406 14.7406C15.4282 14.0529 16.3608 13.6666 17.3333 13.6666H24.6666C25.6391 13.6666 26.5717 14.0529 27.2593 14.7406C27.947 15.4282 28.3333 16.3608 28.3333 17.3333V24.6666C28.3333 25.6391 27.947 26.5717 27.2593 27.2593C26.5717 27.947 25.6391 28.3333 24.6666 28.3333H17.3333C16.3608 28.3333 15.4282 27.947 14.7406 27.2593C14.0529 26.5717 13.6666 25.6391 13.6666 24.6666V17.3333Z" stroke="#95C6F9" stroke-width="1.5" stroke-linecap="round" stroke-linejoin="round"/>
<path d="M18.25 21C18.25 21.7293 18.5397 22.4288 19.0555 22.9445C19.5712 23.4603 20.2707 23.75 21 23.75C21.7293 23.75 22.4288 23.4603 22.9445 22.9445C23.4603 22.4288 23.75 21.7293 23.75 21C23.75 20.2707 23.4603 19.5712 22.9445 19.0555C22.4288 18.5397 21.7293 18.25 21 18.25C20.2707 18.25 19.5712 18.5397 19.0555 19.0555C18.5397 19.5712 18.25 20.2707 18.25 21Z" stroke="#95C6F9" stroke-width="1.5" stroke-linecap="round" stroke-linejoin="round"/>
<path d="M25.125 16.875V16.8833" stroke="#95C6F9" stroke-width="1.5" stroke-linecap="round" stroke-linejoin="round"/>
</g>
<defs>
<clipPath id="clip0_1054_445">
<rect width="22" height="22" fill="white" transform="translate(10 10)"/>
</clipPath>
</defs>
</svg>
