<svg width="200" height="200" viewBox="0 0 200 200" fill="none" xmlns="http://www.w3.org/2000/svg">
<rect width="200" height="200" rx="100" fill="url(#paint0_linear_101_25111)"/>
<rect x="20" y="20" width="160" height="160" rx="80" fill="white"/>
<path d="M65.6348 93.2344C61.5723 93.2344 59.0332 90.4414 59.0332 85.959V85.9395C59.0332 81.4668 61.582 78.6738 65.6348 78.6738C69.6973 78.6738 72.2363 81.4766 72.2363 85.9395V85.959C72.2363 90.4316 69.707 93.2344 65.6348 93.2344ZM65.6348 91.3008C68.3398 91.3008 70 89.2109 70 85.959V85.9395C70 82.668 68.3105 80.6074 65.6348 80.6074C62.9688 80.6074 61.2598 82.6582 61.2598 85.9395V85.959C61.2598 89.2402 62.959 91.3008 65.6348 91.3008ZM78.6621 93.2051C75.6641 93.2051 73.7891 91.1445 73.7891 87.8535V87.8438C73.7891 84.5918 75.7031 82.5312 78.6426 82.5312C81.2793 82.5312 82.8809 84.2305 83.0566 86.1641L83.0664 86.2324H81.0547L81.0352 86.1543C80.8105 85.1484 80.0293 84.2988 78.6523 84.2988C77.0117 84.2988 75.9473 85.666 75.9473 87.8633V87.873C75.9473 90.1191 77.0312 91.4375 78.6719 91.4375C79.9707 91.4375 80.791 90.6855 81.0449 89.5723L81.0645 89.4941H83.0859L83.0762 89.5625C82.8516 91.623 81.1328 93.2051 78.6621 93.2051ZM92.3535 82.7266V84.4062H89.1406V93H87.0215V84.4062H83.8086V82.7266H92.3535ZM96.582 93.1855C94.5312 93.1855 93.1543 91.9258 93.1543 90.0801V90.0605C93.1543 88.2734 94.541 87.1797 96.9727 87.0332L99.7754 86.8672V86.0957C99.7754 84.9629 99.0332 84.2793 97.7246 84.2793C96.5039 84.2793 95.752 84.8555 95.5762 85.6758L95.5566 85.7637H93.5645L93.5742 85.6562C93.7207 83.8887 95.2539 82.5312 97.7832 82.5312C100.293 82.5312 101.885 83.8594 101.885 85.9199V93H99.7754V91.3789H99.7266C99.1309 92.4824 97.9492 93.1855 96.582 93.1855ZM95.2832 90.0312C95.2832 90.9297 96.0254 91.4961 97.1582 91.4961C98.6426 91.4961 99.7754 90.4902 99.7754 89.1523V88.3516L97.2559 88.5078C95.9863 88.5859 95.2832 89.1426 95.2832 90.0117V90.0312ZM104.111 93V82.7266H108.779C110.781 82.7266 111.992 83.7324 111.992 85.3633V85.3828C111.992 86.4473 111.23 87.4141 110.244 87.5996V87.6777C111.572 87.8535 112.451 88.7715 112.451 90.0312V90.0508C112.451 91.8477 111.064 93 108.838 93H104.111ZM106.201 86.9648H108.125C109.316 86.9648 109.902 86.5254 109.902 85.6172V85.5977C109.902 84.748 109.355 84.2891 108.34 84.2891H106.201V86.9648ZM106.201 91.4375H108.447C109.639 91.4375 110.283 90.9395 110.283 89.9629V89.9434C110.283 88.957 109.59 88.498 108.203 88.498H106.201V91.4375ZM114.326 93V82.7266H116.436V85.9004H118.389C120.762 85.9004 122.295 87.2773 122.295 89.4355V89.4551C122.295 91.623 120.762 93 118.389 93H114.326ZM118.184 87.5703H116.436V91.3301H118.184C119.385 91.3301 120.137 90.5879 120.137 89.4551V89.4355C120.137 88.3027 119.375 87.5703 118.184 87.5703ZM130.889 82.7266V84.4062H127.676V93H125.557V84.4062H122.344V82.7266H130.889ZM136.621 93.2051C133.604 93.2051 131.777 91.1445 131.777 87.9023V87.8926C131.777 84.6797 133.633 82.5312 136.514 82.5312C139.395 82.5312 141.162 84.6016 141.162 87.6875V88.4004H133.887C133.926 90.3438 134.99 91.4766 136.67 91.4766C137.92 91.4766 138.75 90.832 139.014 90.0605L139.043 89.9824H141.055L141.025 90.0898C140.703 91.7207 139.111 93.2051 136.621 93.2051ZM136.523 84.2598C135.156 84.2598 134.111 85.1875 133.916 86.9062H139.072C138.906 85.1289 137.9 84.2598 136.523 84.2598ZM74.3066 121.205C71.9043 121.205 70.2539 120.053 70.0488 118.236L70.0391 118.148H72.1094L72.1387 118.246C72.373 119.076 73.1348 119.525 74.2969 119.525C75.5957 119.525 76.3965 118.949 76.3965 118.012V117.992C76.3965 117.006 75.7129 116.537 74.2871 116.537H72.8027V115.004H74.2773C75.5176 115.004 76.1523 114.535 76.1523 113.617V113.598C76.1523 112.719 75.4883 112.201 74.375 112.201C73.2715 112.201 72.5 112.68 72.3438 113.461L72.334 113.529H70.3223L70.332 113.451C70.5762 111.625 72.0898 110.531 74.4043 110.531C76.7676 110.531 78.2129 111.615 78.2129 113.373V113.393C78.2129 114.496 77.5 115.365 76.3965 115.619V115.697C77.7539 115.971 78.4961 116.791 78.4961 117.992V118.012C78.4961 119.926 76.8262 121.205 74.3066 121.205ZM83.3691 121.186C81.3184 121.186 79.9414 119.926 79.9414 118.08V118.061C79.9414 116.273 81.3281 115.18 83.7598 115.033L86.5625 114.867V114.096C86.5625 112.963 85.8203 112.279 84.5117 112.279C83.291 112.279 82.5391 112.855 82.3633 113.676L82.3438 113.764H80.3516L80.3613 113.656C80.5078 111.889 82.041 110.531 84.5703 110.531C87.0801 110.531 88.6719 111.859 88.6719 113.92V121H86.5625V119.379H86.5137C85.918 120.482 84.7363 121.186 83.3691 121.186ZM82.0703 118.031C82.0703 118.93 82.8125 119.496 83.9453 119.496C85.4297 119.496 86.5625 118.49 86.5625 117.152V116.352L84.043 116.508C82.7734 116.586 82.0703 117.143 82.0703 118.012V118.031ZM96.7578 121V117.475H95.1074L92.627 121H90.2246L93.0273 117.113C91.6016 116.693 90.7227 115.629 90.7227 114.203V114.184C90.7227 112.055 92.2852 110.727 94.6875 110.727H98.8574V121H96.7578ZM94.7949 115.844H96.7578V112.396H94.7949C93.5938 112.396 92.8613 113.061 92.8613 114.174V114.193C92.8613 115.16 93.6035 115.844 94.7949 115.844ZM101.113 121V110.727H105.781C107.783 110.727 108.994 111.732 108.994 113.363V113.383C108.994 114.447 108.232 115.414 107.246 115.6V115.678C108.574 115.854 109.453 116.771 109.453 118.031V118.051C109.453 119.848 108.066 121 105.84 121H101.113ZM103.203 114.965H105.127C106.318 114.965 106.904 114.525 106.904 113.617V113.598C106.904 112.748 106.357 112.289 105.342 112.289H103.203V114.965ZM103.203 119.438H105.449C106.641 119.438 107.285 118.939 107.285 117.963V117.943C107.285 116.957 106.592 116.498 105.205 116.498H103.203V119.438ZM113.809 116.42H113.438V121H111.328V110.727H113.438V114.965H113.809L117.529 110.727H120.02L115.693 115.551L120.195 121H117.588L113.809 116.42ZM122.578 124.428C122.168 124.428 121.729 124.379 121.475 124.33V122.68C121.641 122.719 121.885 122.758 122.168 122.758C123.164 122.758 123.711 122.494 124.062 121.498L124.238 121.01L120.498 110.727H122.783L125.371 119.086H125.439L128.027 110.727H130.254L126.426 121.479C125.664 123.607 124.59 124.428 122.578 124.428Z" fill="#193B70"/>
<defs>
<linearGradient id="paint0_linear_101_25111" x1="100" y1="0" x2="100" y2="200" gradientUnits="userSpaceOnUse">
<stop stop-color="#007BFC"/>
<stop offset="1" stop-color="#32558C"/>
</linearGradient>
</defs>
</svg>
