<svg width="20" height="21" viewBox="0 0 20 21" fill="none" xmlns="http://www.w3.org/2000/svg">
<g id="mobile-notch (1) 1" clip-path="url(#clip0_101_25099)">
<path id="Vector" d="M12.5375 0.500015C12.515 0.499181 7.48501 0.499181 7.46251 0.500015C5.18251 0.520015 3.33334 2.38168 3.33334 4.66585V16.3325C3.33334 18.63 5.20251 20.4992 7.50001 20.4992H12.5C14.7975 20.4992 16.6667 18.63 16.6667 16.3325V4.66668C16.6667 2.38168 14.8175 0.520848 12.5375 0.500015ZM15 16.3325C15 17.7108 13.8783 18.8325 12.5 18.8325H7.50001C6.12168 18.8325 5.00001 17.7108 5.00001 16.3325V4.66668C5.00001 3.45585 5.86501 2.44418 7.00918 2.21501L7.58751 3.37251C7.72834 3.65501 8.01751 3.83335 8.33334 3.83335H11.6667C11.9825 3.83335 12.2708 3.65501 12.4125 3.37251L12.9908 2.21501C14.135 2.44335 15 3.45585 15 4.66668V16.3325ZM10.8333 17.1658H9.16668C8.70668 17.1658 8.33334 16.7925 8.33334 16.3325C8.33334 15.8725 8.70668 15.4992 9.16668 15.4992H10.8333C11.2933 15.4992 11.6667 15.8725 11.6667 16.3325C11.6667 16.7925 11.2933 17.1658 10.8333 17.1658Z" fill="#95C6F9"/>
</g>
<defs>
<clipPath id="clip0_101_25099">
<rect width="20" height="20" fill="white" transform="translate(0 0.5)"/>
</clipPath>
</defs>
</svg>
