<svg width="32" height="32" viewBox="0 0 32 32" fill="none" xmlns="http://www.w3.org/2000/svg">
<g id="ranking-stars (1) 1" clip-path="url(#clip0_199_24039)">
<path id="Vector" d="M27.3333 13.3333H24.6667C22.32 13.3333 20.372 15.0747 20.048 17.3333H14C11.6533 17.3333 9.70533 19.0747 9.38133 21.3333H4.66667C2.09333 21.3333 0 23.4267 0 26V27.3333C0 29.9067 2.09333 32 4.66667 32H27.3333C29.9067 32 32 29.9067 32 27.3333V18C32 15.4267 29.9067 13.3333 27.3333 13.3333ZM2.66667 27.3333V26C2.66667 24.8973 3.564 24 4.66667 24H9.33333V29.3333H4.66667C3.564 29.3333 2.66667 28.436 2.66667 27.3333ZM12 22C12 20.8973 12.8973 20 14 20H20V29.3333H12V22ZM29.3333 27.3333C29.3333 28.436 28.436 29.3333 27.3333 29.3333H22.6667V18C22.6667 16.8973 23.564 16 24.6667 16H27.3333C28.436 16 29.3333 16.8973 29.3333 18V27.3333ZM21.388 3.80932C21.516 3.45999 21.8493 3.22666 22.2227 3.22666H24.8907L25.8347 0.577324C25.964 0.229324 26.296 -0.00134277 26.668 -0.00134277C27.04 -0.00134277 27.372 0.229324 27.5013 0.577324L28.4453 3.22666H31.1133C31.4867 3.22666 31.82 3.45999 31.948 3.81066C32.076 4.16132 31.9707 4.55466 31.6853 4.79599L29.5827 6.50932L30.452 9.15866C30.5707 9.51732 30.4507 9.91199 30.1507 10.1427C29.8507 10.3733 29.4387 10.3893 29.1227 10.184L26.6747 8.58932L24.268 10.2C24.1187 10.3 23.9453 10.3507 23.7733 10.3507C23.5853 10.3507 23.3973 10.2907 23.24 10.1733C22.9373 9.94666 22.812 9.55466 22.9253 9.19466L23.7613 6.51332L21.648 4.79332C21.364 4.55199 21.2587 4.15866 21.388 3.80932ZM10.7213 7.80932C10.8493 7.45999 11.1827 7.22666 11.556 7.22666H14.224L15.168 4.57732C15.2973 4.22932 15.6293 3.99866 16.0013 3.99866C16.3733 3.99866 16.7053 4.22932 16.8347 4.57732L17.7787 7.22666H20.4467C20.82 7.22666 21.1533 7.45999 21.2813 7.81066C21.4093 8.16132 21.304 8.55466 21.0187 8.79599L18.916 10.5093L19.7853 13.1587C19.904 13.5173 19.784 13.912 19.484 14.1427C19.184 14.3733 18.772 14.3893 18.456 14.184L16.008 12.5893L13.6013 14.2C13.452 14.3 13.2787 14.3507 13.1067 14.3507C12.9187 14.3507 12.7307 14.2907 12.5733 14.1733C12.2707 13.9467 12.1453 13.5547 12.2587 13.1947L13.0947 10.5133L10.9813 8.79332C10.6973 8.55199 10.592 8.15866 10.7213 7.80932ZM0.0546667 11.8093C0.182667 11.46 0.516 11.2267 0.889333 11.2267H3.55733L4.50133 8.57732C4.63067 8.22932 4.96267 7.99866 5.33467 7.99866C5.70667 7.99866 6.03867 8.22932 6.168 8.57732L7.112 11.2267H9.78C10.1533 11.2267 10.4867 11.46 10.6147 11.8107C10.7427 12.1613 10.6373 12.5547 10.352 12.796L8.24933 14.5093L9.11867 17.1587C9.23733 17.5173 9.11733 17.912 8.81733 18.1427C8.51733 18.3733 8.10533 18.3893 7.78933 18.184L5.34133 16.5893L2.93467 18.2C2.78533 18.3 2.612 18.3507 2.44 18.3507C2.252 18.3507 2.064 18.2907 1.90667 18.1733C1.604 17.9467 1.47867 17.5547 1.592 17.1947L2.428 14.5133L0.314667 12.7933C0.0306667 12.552 -0.0746667 12.1587 0.0546667 11.8093Z" fill="#007BFC"/>
</g>
<defs>
<clipPath id="clip0_199_24039">
<rect width="32" height="32" fill="white"/>
</clipPath>
</defs>
</svg>
