<svg width="244" height="120" viewBox="0 0 244 120" fill="none" xmlns="http://www.w3.org/2000/svg">
<path d="M118.321 76.9026H112.318L86.8158 45.2384L61.2961 76.9026H55.2842L83.8011 41.5246L86.7982 37.802L89.8042 41.5246L118.321 76.9026Z" fill="#007BFC"/>
<path d="M147.191 76.8229L147.094 76.9025H141.24L107.408 34.9105L98.3197 46.2021L95.3137 42.4706L104.402 31.1967L107.408 27.4741L110.405 31.1967L147.191 76.8229Z" fill="#007BFC"/>
<path d="M174.526 76.9025H168.541L127.171 25.5731L118.815 35.9451L115.818 32.2313L124.174 21.8593L127.171 18.1367L130.169 21.8682L174.526 76.9025Z" fill="#007BFC"/>
<path d="M37.6367 99.0438C35.9618 97.5229 35.2478 97.2577 33.2644 97.2577H27.3495V101.847H23.2681V85.6035H37.672C40.4223 85.6035 42.1412 86.1429 43.2784 87.1951C44.3098 88.1589 44.7946 89.6091 44.7946 91.4217C44.7946 93.2344 44.3009 94.6845 43.2784 95.6484C42.4938 96.3823 41.4272 96.8597 39.9551 97.0808C40.96 97.461 41.6476 98.0004 42.679 98.9377L45.8524 101.847H40.7396L37.6543 99.0526L37.6367 99.0438ZM37.2576 94.0302C38.7562 94.0302 39.5584 93.8534 40.052 93.3405C40.4575 92.9161 40.6339 92.2883 40.6339 91.4129C40.6339 90.5375 40.4575 89.9362 40.052 89.5118C39.5584 88.999 38.7562 88.8221 37.2576 88.8221H27.3406V94.0302H37.2576Z" fill="white"/>
<path d="M68.1633 101.838H49.0962V85.5945H68.1016V88.8131H53.1864V91.9698H63.2356V95.0557H53.1864V98.6103H68.1721V101.829L68.1633 101.838Z" fill="white"/>
<path d="M88.5263 98.8844H76.2028L74.2635 101.838H69.7325L80.7426 85.5945H84.0659L95.1377 101.838H90.5186L88.5352 98.8844H88.5263ZM78.3449 95.6393H86.3578L82.3205 89.6177L78.3449 95.6393Z" fill="white"/>
<path d="M115.818 101.838H97.4209V85.5945H101.502V98.6103H115.818V101.829V101.838Z" fill="white"/>
<path d="M137.547 88.7514H123.928C122.808 88.7514 121.988 88.8398 121.565 89.2465C121.345 89.4499 121.23 89.7594 121.23 90.1396C121.23 91.0769 121.988 91.4129 123.399 91.5278L132.311 92.2175C135.167 92.4386 136.824 92.8188 137.891 93.8976C138.587 94.5873 139.028 95.5776 139.028 96.9835C139.028 98.3895 138.605 99.4682 137.82 100.229C136.683 101.369 134.92 101.838 131.95 101.838H118.304V98.6812H132.505C134.312 98.6812 135.07 98.1861 135.07 97.1604C135.07 96.2408 134.532 95.8871 132.902 95.7545L124.642 95.1267C122.279 94.9498 120.128 94.6315 118.745 93.4289C117.942 92.7392 117.334 91.6163 117.334 90.2103C117.334 88.8044 117.845 87.8141 118.63 87.0802C119.767 86.0279 121.671 85.6035 124.21 85.6035H137.538V88.7602L137.547 88.7514Z" fill="white"/>
<path d="M155.883 85.3293C160.37 85.3293 163.34 86.0014 165.103 87.814C166.399 89.1581 167.043 91.1918 167.043 93.7207C167.043 96.2496 166.399 98.2833 165.103 99.6273C163.34 101.44 160.37 102.112 155.839 102.112H152.647C148.161 102.112 145.19 101.44 143.427 99.6273C142.131 98.2833 141.488 96.2496 141.488 93.7207C141.488 91.1918 142.131 89.1581 143.427 87.814C145.19 86.0014 148.161 85.3293 152.647 85.3293H155.883ZM155.504 98.5486C158.545 98.5486 160.281 98.3452 161.374 97.4963C162.335 96.7359 162.758 95.5068 162.758 93.7118C162.758 91.9169 162.335 90.6878 161.374 89.9273C160.281 89.0785 158.536 88.8751 155.477 88.8751H153.044C149.985 88.8751 148.24 89.0785 147.147 89.9273C146.186 90.6878 145.763 91.9169 145.763 93.7118C145.763 95.5068 146.186 96.7359 147.147 97.4963C148.24 98.3452 149.985 98.5486 153.018 98.5486H155.495H155.504Z" fill="white"/>
<path d="M174.483 101.838H170.401V85.5945H189.177V88.8131H174.483V91.9698H184.311V95.0557H174.483V101.838Z" fill="white"/>
<path d="M190.209 85.5945H211.621V88.8131H202.955V101.829H198.865V88.8131H190.2V85.5945H190.209Z" fill="white"/>
<path d="M220.056 81.7128C220.056 83.7907 218.426 85.4265 216.31 85.4265C214.194 85.4265 212.537 83.7907 212.537 81.7128C212.537 79.6348 214.212 78.0432 216.31 78.0432C218.408 78.0432 220.056 79.679 220.056 81.7128ZM213.472 81.7128C213.472 83.3486 214.679 84.6484 216.328 84.6484C217.976 84.6484 219.113 83.3486 219.113 81.7393C219.113 80.13 217.932 78.786 216.301 78.786C214.67 78.786 213.472 80.1035 213.472 81.7216V81.7128ZM215.728 83.6404H214.882V79.9708C215.217 79.9001 215.684 79.8559 216.284 79.8559C216.971 79.8559 217.288 79.9708 217.553 80.1211C217.756 80.2803 217.914 80.5721 217.914 80.9258C217.914 81.3325 217.606 81.642 217.156 81.7747V81.8189C217.509 81.9515 217.712 82.2256 217.826 82.7119C217.941 83.269 218.002 83.4989 218.091 83.6315H217.174C217.059 83.4989 216.998 83.1629 216.883 82.7385C216.812 82.3317 216.592 82.1549 216.125 82.1549H215.719V83.6315L215.728 83.6404ZM215.755 81.5624H216.16C216.627 81.5624 217.006 81.4033 217.006 81.0231C217.006 80.6871 216.76 80.466 216.222 80.466C216.001 80.466 215.843 80.4925 215.755 80.5102V81.5624Z" fill="white"/>
</svg>
