<svg width="20" height="20" viewBox="0 0 20 20" fill="none" xmlns="http://www.w3.org/2000/svg">
<path d="M19.7558 18.5774L14.7816 13.6033C16.1371 11.9454 16.8036 9.83002 16.6431 7.69458C16.4827 5.55913 15.5076 3.56705 13.9196 2.13037C12.3316 0.693699 10.2521 -0.0776494 8.11131 -0.0241229C5.97052 0.0294036 3.93219 0.90371 2.41795 2.41795C0.90371 3.93219 0.0294036 5.97052 -0.0241229 8.11131C-0.0776494 10.2521 0.693699 12.3316 2.13037 13.9196C3.56705 15.5076 5.55913 16.4827 7.69458 16.6431C9.83002 16.8036 11.9454 16.1371 13.6033 14.7816L18.5774 19.7558C18.7346 19.9076 18.9451 19.9916 19.1636 19.9897C19.3821 19.9878 19.5911 19.9001 19.7456 19.7456C19.9001 19.5911 19.9878 19.3821 19.9897 19.1636C19.9916 18.9451 19.9076 18.7346 19.7558 18.5774ZM8.33327 14.9999C7.01473 14.9999 5.7258 14.6089 4.62947 13.8764C3.53314 13.1439 2.67866 12.1027 2.17408 10.8845C1.66949 9.66632 1.53747 8.32588 1.79471 7.03267C2.05194 5.73947 2.68688 4.55158 3.61923 3.61923C4.55158 2.68688 5.73947 2.05194 7.03267 1.79471C8.32588 1.53747 9.66632 1.66949 10.8845 2.17408C12.1027 2.67866 13.1439 3.53314 13.8764 4.62947C14.6089 5.7258 14.9999 7.01473 14.9999 8.33327C14.998 10.1008 14.2949 11.7953 13.0451 13.0451C11.7953 14.2949 10.1008 14.998 8.33327 14.9999Z" fill="#95C6F9"/>
</svg>
