<svg width="20" height="21" viewBox="0 0 20 21" fill="none" xmlns="http://www.w3.org/2000/svg">
<g id="site-alt 1" clip-path="url(#clip0_101_25095)">
<path id="Vector" d="M19.5117 13.9083C19.5117 13.9083 12.2333 10.6 12.2075 10.5917C11.6008 10.385 10.9425 10.5375 10.4892 10.9908C10.0358 11.4442 9.88333 12.1025 10.1208 12.7833L13.4075 20.0125C13.54 20.305 13.8292 20.495 14.1508 20.5008H14.1667C14.4817 20.5008 14.7708 20.3225 14.9125 20.04L16.455 16.955L19.54 15.4125C19.8275 15.2683 20.0067 14.9733 20.0008 14.6517C19.995 14.3308 19.805 14.0417 19.5125 13.9083H19.5117ZM15.4608 15.5883C15.3 15.6692 15.1683 15.8 15.0883 15.9608L14.2017 17.7342L11.665 12.1708L17.2325 14.7025L15.4617 15.5875L15.4608 15.5883ZM10.76 18.8C10.6167 18.8125 10.4725 18.8217 10.3267 18.8275C9.77 18.2767 8.31833 16.7292 7.30667 14.6675H7.91667C8.37667 14.6675 8.75 14.295 8.75 13.8342C8.75 13.3733 8.37667 13.0008 7.91667 13.0008H6.64167C6.39917 12.2075 6.25 11.3675 6.25 10.5008C6.25 9.63417 6.4 8.795 6.64333 8.00083H13.3575C13.4558 8.32333 13.5392 8.65333 13.6033 8.99C13.69 9.4425 14.1275 9.74083 14.5775 9.6525C15.0292 9.56667 15.3258 9.13 15.24 8.67833C15.1967 8.44917 15.145 8.22333 15.0875 8.00083H17.915C17.9258 8.00083 17.9375 8.00083 17.9483 8.00083C18.1975 8.79083 18.3317 9.63083 18.3317 10.5017C18.3317 10.7575 18.32 11.01 18.2975 11.26C18.2567 11.7183 18.5942 12.1233 19.0525 12.165C19.5125 12.21 19.9167 11.8683 19.9575 11.41C19.9842 11.1108 19.9983 10.8075 19.9983 10.5017C20 4.98583 15.5142 0.5 10 0.5C4.48583 0.5 0 4.98583 0 10.5C0 16.0142 4.48583 20.5 9.99917 20.5C10.305 20.5 10.6075 20.4858 10.9058 20.4592C11.3642 20.4183 11.7033 20.0142 11.6625 19.555C11.6217 19.0975 11.2183 18.7592 10.7592 18.7992L10.76 18.8ZM4.91 13.0008H2.08333C2.0725 13.0008 2.06167 13.0008 2.05 13.0008C1.80083 12.2108 1.66667 11.3708 1.66667 10.5C1.66667 9.62917 1.80083 8.78917 2.05 7.99917C2.06083 7.99917 2.07167 7.99917 2.08333 7.99917H4.91C4.70583 8.795 4.58333 9.63167 4.58333 10.4992C4.58333 11.3667 4.705 12.2033 4.91 12.9992V13.0008ZM7.31083 6.33417C8.16167 4.60333 9.32333 3.23083 10.0017 2.51083C10.6808 3.23 11.8425 4.6 12.6933 6.33417H7.31083ZM17.215 6.33417H14.525C13.8658 4.7625 12.9517 3.4275 12.165 2.45333C14.3142 3.0325 16.1225 4.45083 17.215 6.33417ZM7.83333 2.45333C7.04667 3.4275 6.13167 4.7625 5.47333 6.33333H2.785C3.87667 4.45 5.68417 3.03167 7.83333 2.45333ZM2.785 14.6667H5.47333C6.13167 16.2383 7.04667 17.5725 7.83333 18.5467C5.685 17.9675 3.8775 16.5492 2.785 14.6667Z" fill="#95C6F9"/>
</g>
<defs>
<clipPath id="clip0_101_25095">
<rect width="20" height="20" fill="white" transform="translate(0 0.5)"/>
</clipPath>
</defs>
</svg>
