<svg width="20" height="20" viewBox="0 0 20 20" fill="none" xmlns="http://www.w3.org/2000/svg">
<g id="stati-all">
<path id="Vector" d="M12.8333 8.23333L9.00829 4.40833C8.85216 4.25312 8.64095 4.166 8.42079 4.166C8.20064 4.166 7.98943 4.25312 7.83329 4.40833C7.75518 4.4858 7.69319 4.57796 7.65088 4.67951C7.60857 4.78106 7.58679 4.88998 7.58679 4.99999C7.58679 5.11 7.60857 5.21893 7.65088 5.32047C7.69319 5.42202 7.75518 5.51419 7.83329 5.59166L11.6666 9.40833C11.7447 9.4858 11.8067 9.57796 11.849 9.67951C11.8913 9.78106 11.9131 9.88998 11.9131 9.99999C11.9131 10.11 11.8913 10.2189 11.849 10.3205C11.8067 10.422 11.7447 10.5142 11.6666 10.5917L7.83329 14.4083C7.67637 14.5641 7.58777 14.7759 7.58699 14.997C7.58621 15.2182 7.67331 15.4306 7.82912 15.5875C7.98494 15.7444 8.19671 15.833 8.41784 15.8338C8.63898 15.8346 8.85137 15.7475 9.00829 15.5917L12.8333 11.7667C13.3015 11.2979 13.5644 10.6625 13.5644 9.99999C13.5644 9.33749 13.3015 8.70208 12.8333 8.23333Z" fill="#4C6EA1"/>
</g>
</svg>
