<svg width="20" height="21" viewBox="0 0 20 21" fill="none" xmlns="http://www.w3.org/2000/svg">
<g id="system-cloud 1" clip-path="url(#clip0_101_25107)">
<path id="Vector" d="M20 18.8334C20 19.7542 19.2542 20.5001 18.3333 20.5001C17.7183 20.5001 17.1867 20.1626 16.8975 19.6667H15.8333C14.455 19.6667 13.3333 18.5451 13.3333 17.1667V13.0001C13.3333 12.5392 13.7067 12.1667 14.1667 12.1667C14.6267 12.1667 15 12.5392 15 13.0001V17.1667C15 17.6267 15.3742 18.0001 15.8333 18.0001H16.8975C17.1858 17.5042 17.7175 17.1667 18.3333 17.1667C19.2542 17.1667 20 17.9126 20 18.8334ZM10.8333 17.3976V13.0001C10.8333 12.5392 10.46 12.1667 10 12.1667C9.54 12.1667 9.16667 12.5392 9.16667 13.0001V17.3976C8.67083 17.6859 8.33333 18.2176 8.33333 18.8334C8.33333 19.7542 9.07917 20.5001 10 20.5001C10.9208 20.5001 11.6667 19.7542 11.6667 18.8334C11.6667 18.2184 11.3292 17.6867 10.8333 17.3976ZM5.83333 12.1667C5.37333 12.1667 5 12.5392 5 13.0001V17.1667C5 17.6267 4.62583 18.0001 4.16667 18.0001H3.1025C2.81417 17.5042 2.2825 17.1667 1.66667 17.1667C0.745833 17.1667 0 17.9126 0 18.8334C0 19.7542 0.745833 20.5001 1.66667 20.5001C2.28167 20.5001 2.81333 20.1626 3.1025 19.6667H4.16667C5.545 19.6667 6.66667 18.5451 6.66667 17.1667V13.0001C6.66667 12.5392 6.29333 12.1667 5.83333 12.1667ZM17.5 10.0451C17.5 10.8609 17.2608 11.6484 16.8083 12.3217C16.5517 12.7042 16.6533 13.2217 17.035 13.4784C17.4175 13.7367 17.9358 13.6326 18.1917 13.2517C18.8292 12.3017 19.1658 11.1934 19.1658 10.0451C19.1658 7.30839 17.2208 4.93422 14.54 4.40006C14.3125 4.35422 14.1267 4.21256 14.0317 4.01006C12.8425 1.50089 10.0892 0.100055 7.3325 0.605889C4.8225 1.06506 2.85417 3.06922 2.435 5.59256C2.31167 6.33756 2.32 7.08256 2.46 7.80839C2.5 8.01589 2.40917 8.25006 2.2225 8.42005C1.33917 9.22256 0.833333 10.3667 0.833333 11.5601C0.833333 12.6059 1.21667 13.6109 1.91417 14.3892C2.07917 14.5734 2.30667 14.6667 2.53583 14.6667C2.73333 14.6667 2.9325 14.5967 3.09167 14.4542C3.435 14.1476 3.46333 13.6201 3.15667 13.2776C2.73333 12.8059 2.50083 12.1951 2.50083 11.5601C2.50083 10.8359 2.80833 10.1409 3.345 9.65422C3.95917 9.09506 4.2475 8.26672 4.09833 7.49089C3.995 6.96089 3.99 6.41422 4.08083 5.86589C4.38083 4.06172 5.84167 2.57256 7.63417 2.24422C9.67583 1.87339 11.6458 2.86589 12.5275 4.72422C12.8517 5.40672 13.4667 5.88506 14.2158 6.03339C16.1192 6.41339 17.5008 8.10006 17.5008 10.0442L17.5 10.0451Z" fill="#95C6F9"/>
</g>
<defs>
<clipPath id="clip0_101_25107">
<rect width="20" height="20" fill="white" transform="translate(0 0.5)"/>
</clipPath>
</defs>
</svg>
