<svg width="42" height="42" viewBox="0 0 42 42" fill="none" xmlns="http://www.w3.org/2000/svg">
<rect width="42" height="42" rx="8" fill="#193B70"/>
<g clip-path="url(#clip0_1054_455)">
<path d="M11.8334 17.3333C11.8334 16.3608 12.2197 15.4282 12.9073 14.7406C13.5949 14.0529 14.5276 13.6666 15.5 13.6666H26.5C27.4725 13.6666 28.4051 14.0529 29.0928 14.7406C29.7804 15.4282 30.1667 16.3608 30.1667 17.3333V24.6666C30.1667 25.6391 29.7804 26.5717 29.0928 27.2593C28.4051 27.947 27.4725 28.3333 26.5 28.3333H15.5C14.5276 28.3333 13.5949 27.947 12.9073 27.2593C12.2197 26.5717 11.8334 25.6391 11.8334 24.6666V17.3333Z" stroke="#95C6F9" stroke-width="1.5" stroke-linecap="round" stroke-linejoin="round"/>
<path d="M19.1666 18.25L23.75 21L19.1666 23.75V18.25Z" stroke="#95C6F9" stroke-width="1.5" stroke-linecap="round" stroke-linejoin="round"/>
</g>
<defs>
<clipPath id="clip0_1054_455">
<rect width="22" height="22" fill="white" transform="translate(10 10)"/>
</clipPath>
</defs>
</svg>
